<svg xmlns="http://www.w3.org/2000/svg" id="Layer_1" data-name="Layer 1" viewBox="0 0 250 250"><path d="M158.29,145.31c-24,19.85-58.18,14-75.41-8.38a52.82,52.82,0,0,1,5-69.8C106.9,48.38,136.79,47.05,158,64.19a52.67,52.67,0,0,1,8.68,72.22c.27.3.53.66.85,1,1,1,2.17,1.9,3.11,3,2.6,3,5.62,5.23,9.81,5.47a3.65,3.65,0,0,1,2,1.06c12.45,11.82,24.92,23.62,37.25,35.56,2.65,2.56,3.35,9.06-1.17,13-3.28,2.88-7,2.77-10.86,1.54-.4-.13-.71-.57-1.05-.88-12.46-11.89-25-23.73-37.31-35.75-1.22-1.19-1.33-3.51-2-5.29a6,6,0,0,0-1.06-2.19C163.64,150.32,160.94,147.83,158.29,145.31ZM124.55,61.17c-24.84.41-43.93,20-43.56,44.6.37,23.86,20.34,43,44.49,42.55a43.64,43.64,0,0,0,42.65-43.92C167.8,80.44,148,60.79,124.55,61.17Z"></path><path d="M170.93,136.4a57.71,57.71,0,0,0,8.38-19.14,2.57,2.57,0,0,1,1.13-1.34c.77-.48,1.67-.75,2.5-1.16a3.38,3.38,0,0,1,3.25.07c8.41,4.11,16.83,4,25.27,0a3.75,3.75,0,0,1,2.72-.08c8.67,3.37,14.59,9.22,16.35,18.67.25,1.34.3,2.72.47,4.3-.73,0-1.28.08-1.83.08-18.25,0-36.49,0-54.74,0C173.34,137.74,172.25,136.93,170.93,136.4Z"></path><path d="M78.94,137.73H19A23,23,0,0,1,23.18,124a26.5,26.5,0,0,1,13.06-9.49,3.23,3.23,0,0,1,2.1.24c4.93,2.06,9.95,4,15.37,3a79.06,79.06,0,0,0,10.54-3.14c1.72-.57,5.14.77,5.52,2.44A56.45,56.45,0,0,0,78.55,137,8.6,8.6,0,0,1,78.94,137.73Z"></path><path d="M34.66,96.4a16.55,16.55,0,1,1,16.23,16.9A16.62,16.62,0,0,1,34.66,96.4Z"></path><path d="M215.22,96.63a16.55,16.55,0,1,1-33.09,0,16.55,16.55,0,1,1,33.09,0Z"></path><path d="M91.07,126.54A34.31,34.31,0,0,1,107,115.72a2.48,2.48,0,0,1,1.57.26c5.84,2.5,11.79,4.68,18.28,4.19a43.63,43.63,0,0,0,14.54-4,4,4,0,0,1,2.7-.11,34.3,34.3,0,0,1,13.66,8.75,1.38,1.38,0,0,1,.17,2.06A40,40,0,0,1,91.07,126.54Z"></path><path d="M104.49,93.55a20.71,20.71,0,1,1,21,20.89A20.83,20.83,0,0,1,104.49,93.55Z"></path></svg>