<svg xmlns="http://www.w3.org/2000/svg" id="Layer_1" data-name="Layer 1" viewBox="0 0 250 250"><path d="M39.33,177.38H209c1.8,0,1.8,0,1.8-1.78V82.22c0-1.74,0-1.74-1.74-1.74-3.14,0-6.29,0-9.65,0v-4.6c0-1.33,0-2.66,0-4,0-.67.22-1,.92-1,4.7,0,9.4-.06,14.1,0a5.89,5.89,0,0,1,5.68,5.5c0,.35,0,.71,0,1.06q0,51.21,0,102.42c0,3.4-1.65,5.71-4.62,6.45a7.51,7.51,0,0,1-1.84.18q-88.71,0-177.44,0a6,6,0,0,1-6.39-6.4q0-44.89,0-89.78c0-4.44,0-8.87,0-13.3a6,6,0,0,1,6-6.15c10.91,0,21.81,0,32.72,0a8.23,8.23,0,0,1,.85.09v6c0,3.48,0,3.48-3.43,3.48-8.38,0-16.76,0-25.14,0-1.24,0-1.68.29-1.68,1.61q.06,46.88,0,93.77C39.22,176.3,39.28,176.78,39.33,177.38Z"></path><path d="M148.05,193.22h1.59c24.83,0,49.66.08,74.49-.05,6.45,0,8,5.78,6.16,10.17a5.43,5.43,0,0,1-4.66,3.32,16.47,16.47,0,0,1-1.72.05q-98.91,0-197.8,0a8.8,8.8,0,0,1-4-.78c-3.1-1.64-3.58-4.59-2.85-8.25.54-2.74,3-4.42,6-4.42q37.72,0,75.43,0c.84,0,1.31.14,1.59,1.09a5.13,5.13,0,0,0,5.11,3.73q17.55,0,35.11,0C145.6,198,147.34,196.21,148.05,193.22Z"></path><path d="M116,158.87c-1.93,0-4-.38-5.78.07-5.5,1.34-10,4.14-11.89,9.88a2.21,2.21,0,0,1-2.38,1.69c-2.17,0-4.34,0-6.52,0a2.12,2.12,0,0,1-2.34-1.71c-1.57-6.28-11-11.58-16.78-9.89a2.46,2.46,0,0,1-3.16-1.46c-.94-1.8-2-3.55-3-5.31a2.1,2.1,0,0,1,.3-2.88c4.66-4.46,4.68-15.15,0-19.67a2.18,2.18,0,0,1-.31-3c1.12-1.86,2.18-3.76,3.27-5.64a2.11,2.11,0,0,1,2.66-1.13c6.26,1.76,15.37-3.57,17-9.72a2.27,2.27,0,0,1,2.52-1.86c2.09,0,4.17,0,6.26,0a2.24,2.24,0,0,1,2.54,1.82c1.52,6.1,10.77,11.57,17.1,9.75a2,2,0,0,1,2.47,1c1.17,2,2.33,4,3.46,6a2.06,2.06,0,0,1-.35,2.68c-4.73,4.44-4.69,15.34,0,19.77a2.11,2.11,0,0,1,.32,2.79c-1.12,2-2.21,4-3.42,5.85a6.92,6.92,0,0,1-1.74,1.39Zm-23.47-3.21c8.55.31,16.12-6.9,16.43-15.65a16.26,16.26,0,1,0-32.51-1C76.1,147.88,83.27,155.32,92.51,155.66Z"></path><path d="M82.23,52.33c3.58,1,6.42,0,9.16-1.73A10.11,10.11,0,0,0,96,45a2,2,0,0,1,2.22-1.61c1.51,0,3,0,4.52-.08a1.83,1.83,0,0,1,2.09,1.43c1.3,4.86,8.73,8.89,13.22,7.49a1.72,1.72,0,0,1,2.22.94q1.21,2.13,2.5,4.23a1.67,1.67,0,0,1-.21,2.29c-3.58,3.5-3.48,11.88.12,15.29a1.73,1.73,0,0,1,.27,2.3c-.76,1.36-1.57,2.69-2.27,4.07a2,2,0,0,1-2.61,1.19c-4.09-1.18-10.55,2.61-12.1,6a1.92,1.92,0,0,0-.23.48c-.43,2.4-2,2.94-4.17,2.69a22.7,22.7,0,0,0-3.19,0,1.86,1.86,0,0,1-1.89-1.35,11.89,11.89,0,0,0-13.16-7.55A2,2,0,0,1,81,81.75c-.74-1.36-1.56-2.68-2.36-4a1.78,1.78,0,0,1,.25-2.41c3.53-3.55,3.39-11.65-.07-15.08a1.9,1.9,0,0,1-.28-2.63c.82-1.36,1.53-2.8,2.39-4.14A5.67,5.67,0,0,1,82.23,52.33Zm18.55,2.57a12.65,12.65,0,1,0,12.59,12.78A12.65,12.65,0,0,0,100.78,54.9Z"></path><path d="M121.4,103.35l26-13.42v3.88l-21.94,11v.11l21.94,11v3.87l-26-13.41Z"></path><path d="M151.08,122l15.66-40.69h3.82L154.84,122Z"></path><path d="M200.13,106.43l-26,13.36v-3.87l22.11-11v-.11l-22.11-11V89.93l26,13.36Z"></path></svg>