<svg xmlns="http://www.w3.org/2000/svg" id="Layer_1" data-name="Layer 1" viewBox="0 0 250 250"><path d="M167.64,153a50.46,50.46,0,0,1-13.24,13.6,51.07,51.07,0,0,1-57.92.52,51.63,51.63,0,0,1-14-14.09,21.24,21.24,0,0,1,2.35-1q11.08-3.33,22.19-6.61c2.53-.76,2-.24,2.11-2.69,0-.22,0-.44,0-.66a16.91,16.91,0,0,0-2.65-11.67c-2.88-4.47-4.11-9.68-4.92-15a79.16,79.16,0,0,0-2.44-9.46,37.48,37.48,0,0,1,2.23-27C105,71.23,111.67,67.38,120,66.45a40,40,0,0,1,14,.73c9.24,2.23,14.74,8.42,16.95,17.45,1.87,7.67,2.29,15.39-.36,23.1a78,78,0,0,0-2.51,10.4,46.85,46.85,0,0,1-6.57,16.08,4.73,4.73,0,0,0-.62,2.34c0,2.29.14,4.59.14,6.88a1.5,1.5,0,0,0,1.3,1.73c7.71,2.22,15.4,4.53,23.09,6.84C166.06,152.21,166.72,152.56,167.64,153Zm-62-40a5.38,5.38,0,0,0-.13,1c.68,10,4.7,18.23,12.71,24.26,4.76,3.59,9.28,3.53,14-.14,8-6.24,12.08-14.62,12.47-24.77a4.58,4.58,0,0,0-.2-.9,3.5,3.5,0,0,1-3.33,2.6c-2.81.2-5.63.37-8.44.3-3.1-.07-3.8-.8-4.73-3.8a18.82,18.82,0,0,0-1.38-3.42c-.85-1.53-2.08-1.57-2.91,0a24.68,24.68,0,0,0-1.68,4.15,4,4,0,0,1-3.87,3.06c-2.59.12-5.2.19-7.79.13C108.45,115.28,106.51,115.15,105.59,112.92Zm-2.88-26.78c2.72-2.77,5.44-2,8.17-.74,1.08.5,2.13,1,3.21,1.56,6,2.85,12.24,3.64,18.61,1.38,2.4-.85,4.66-2.08,7-3.15,2.62-1.22,5.16-1.53,7.5.62,0,0,.13,0,.2-.07-2-7.92-7-13.09-14.73-15a37.78,37.78,0,0,0-12.77-.42C111.48,71.15,104.6,77.4,102.71,86.14Zm2.92,18.57a67.12,67.12,0,0,1,7.28-1c3.52-.14,7-.08,10.3,1.72a4.33,4.33,0,0,0,4.19-.2,7.18,7.18,0,0,1,2.45-.92,74,74,0,0,1,8.41-.52,44.57,44.57,0,0,1,6.16,1,5.78,5.78,0,0,0,.19-1.08c0-4.19,0-8.38-.09-12.57a10.54,10.54,0,0,0-.24-1.84c-.21-1.05-.73-1.57-1.87-1-1.56.72-3.16,1.36-4.71,2.1-8.65,4.17-17.25,4.18-25.81-.26-1.37-.7-2.79-1.33-4.21-1.93-.92-.39-1.54,0-1.73,1a8.91,8.91,0,0,0-.2,1.44q-.16,6.42-.28,12.83A8.63,8.63,0,0,0,105.63,104.71Zm56,50.11c-1-.36-1.71-.65-2.43-.85-4.78-1.38-9.58-2.7-14.34-4.13a1.52,1.52,0,0,0-2.2,1c-2.52,6.21-5.08,12.39-7.62,18.58a16.69,16.69,0,0,0-.49,1.72C145.49,168.72,154.15,163.08,161.61,154.82Zm-46.35,16.29.36-.32c-.91-2.42-1.77-4.86-2.76-7.25-1.71-4.16-3.52-8.27-5.26-12.41a1.86,1.86,0,0,0-2.65-1.24c-4.84,1.49-9.72,2.86-14.58,4.28-.53.15-1,.37-1.81.66C95.94,163.13,104.68,168.64,115.26,171.11ZM136.88,140l-.41-.34c-7.59,6.25-15.17,6.48-22.72,0a4.69,4.69,0,0,0-.25.84c-.07,3-.15,6-.15,9,0,.3.42.74.75.91q5.12,2.61,10.28,5.14a1.75,1.75,0,0,0,1.33,0q5.22-2.54,10.4-5.2a1.43,1.43,0,0,0,.74-.93C136.9,146.29,136.88,143.12,136.88,140Zm-23.22,14.69-.21.24c2.24,5.46,4.46,10.93,6.74,16.37a1.43,1.43,0,0,0,1.1.59c2.47.05,4.94,0,7.41,0a1.29,1.29,0,0,0,1.45-1c1.17-3,2.42-6,3.64-8.94l3-7.42c-.65.29-1,.44-1.35.61-3,1.47-5.94,2.9-8.86,4.45a2.89,2.89,0,0,1-3,0C120.29,157.91,117,156.3,113.66,154.65ZM136,105.15v-.29c-2.11.14-4.22.25-6.33.44-1.17.1-1.59.86-1.32,2,.34,1.42.69,2.83,1.11,4.22a3.71,3.71,0,0,0,2.87,2.64,17.1,17.1,0,0,0,9.63-.75,2.27,2.27,0,0,0,1.14-1.56,32,32,0,0,0,.3-4.48c0-1.64-.31-2.07-2-2.16S137.8,105.15,136,105.15Zm-22.23-.21v.19c-1.68,0-3.36,0-5,0-1,0-2,.29-2,1.63a41.72,41.72,0,0,0,.31,5,2.38,2.38,0,0,0,1.25,1.63,18,18,0,0,0,8.74.89c1.53-.24,3-.83,3.49-2.46s.89-3.22,1.27-4.85c.24-1-.22-1.57-1.31-1.63C118.25,105.25,116,105.08,113.76,104.94Z"></path><path d="M153.36,78.82c-.66-1.35-1.26-2.41-1.68-3.54-.12-.35.19-.91.41-1.31q4.24-7.48,8.51-15a2.17,2.17,0,0,0,.16-.4c-.95-1-2-2-2.95-3-5-5.79-6.47-12.42-3.89-19.61a18.51,18.51,0,0,1,15.15-12.71A19.45,19.45,0,0,1,191.4,38.86c2,10-4.51,19.92-14.66,22.55a19.71,19.71,0,0,1-10.45-.36,2.35,2.35,0,0,0-3.07,1.22q-4.36,7.49-8.79,14.95C154.17,77.66,153.86,78.08,153.36,78.82Zm3.17-36.45A15.71,15.71,0,1,0,172.4,26.79,15.76,15.76,0,0,0,156.53,42.37Z"></path><path d="M96.18,171.73l3.24,1.91c-1,1.84-2,3.59-3,5.34-2.12,3.72-4.22,7.45-6.4,11.13-.55.93-.55,1.47.29,2.22a21.2,21.2,0,0,1,6.93,12.34c2.3,12.73-10.66,25.86-24.69,21.5a19.65,19.65,0,0,1-14-16.76,20,20,0,0,1,9.83-18.91,19.36,19.36,0,0,1,14.47-1.81c3.12.75,3.18.72,4.82-2.09,2.65-4.54,5.22-9.12,7.83-13.67C95.66,172.55,95.89,172.19,96.18,171.73ZM93.55,208a15.67,15.67,0,1,0-31.33-.51c0,8.85,6.9,15.62,16,15.63A15.5,15.5,0,0,0,93.55,208Z"></path><path d="M161,191.59c-1.86-3.24-3.52-6.15-5.19-9.05l-5.07-8.89,3.12-2c.45.73.85,1.34,1.22,2q3.7,6.42,7.4,12.84c.36.61.78,1.18,1.18,1.77a1.74,1.74,0,0,0,2.06.76c1.11-.28,2.23-.54,3.36-.74,9.94-1.77,19.36,4.46,22.07,14.59,2.53,9.47-3,19.58-12.51,23-11.06,4-23-2.88-25.47-14.7-1.37-6.43.53-12,4.79-16.9A32.56,32.56,0,0,1,161,191.59Zm26.94,15.88a15.69,15.69,0,1,0-15.72,15.74A15.72,15.72,0,0,0,187.92,207.47Z"></path><path d="M96.54,78.63c-1.19-2-2.32-3.89-3.43-5.79-2-3.46-4-7-6.09-10.38-1.1-1.82-1.26-1.85-3.35-1.36-4.75,1.12-9.37,1.23-14-.93A20,20,0,0,1,58.4,42,19.49,19.49,0,0,1,94,31.49,19.29,19.29,0,0,1,91.8,56.05c-.81.84-2.07,1.67-2.21,2.64s.94,2,1.5,3c2.13,3.77,4.26,7.52,6.4,11.28C98.76,75.22,98.6,76.39,96.54,78.63Zm-3-36.24a15.65,15.65,0,0,0-31.3,0A15.5,15.5,0,0,0,77.78,58.13,15.34,15.34,0,0,0,93.53,42.39Z"></path><path d="M70,123v3.8c-.48,0-.94.08-1.41.09-3.17,0-6.35,0-9.53,0-.89,0-1.22.28-1.34,1.17-1.28,10.15-11.23,16.72-19.78,16.45-9.46-.31-17.7-8.06-18.81-17.67-.88-7.58,3.71-15.81,10.75-19.3a19.32,19.32,0,0,1,22.28,3.5,17.87,17.87,0,0,1,5.53,10.73c.14,1,.55,1.28,1.53,1.27,3.09-.06,6.18,0,9.27,0Zm-47.07,1.82a15.69,15.69,0,1,0,15.87-15.55A15.72,15.72,0,0,0,22.91,124.86Z"></path><path d="M192.16,123.07c.31-1.41.52-2.67.86-3.9a19.43,19.43,0,1,1,19.28,25.16c-10,.27-17.83-6-19.75-15.74-.24-1.24-.64-1.76-2-1.7-2.95.12-5.91,0-8.87,0h-1.49v-3.86Zm35,1.91a15.67,15.67,0,1,0-16.11,15.63C220.3,140.75,227,134.21,227.17,125Z"></path><path d="M166.85,147.73c.61-1.66,1.19-3.27,1.78-4.87,6.89-18.86,3.85-35.82-9.84-50.65a11.83,11.83,0,0,1-3.5-8,12.39,12.39,0,0,1,1.45.85,50.15,50.15,0,0,1,18.62,32.11,49.18,49.18,0,0,1-4.05,29.19C170.17,148.81,169.69,149,166.85,147.73Z"></path><path d="M94.83,84a11.33,11.33,0,0,1-2.48,7.1c-2.7,3.19-5.64,6.29-7.72,9.87-8.21,14.17-8.8,28.9-2.4,43.95a3.5,3.5,0,0,1,.33.71c.14.82,1.46,1.72,0,2.47-1.73.87-2.64.57-3.42-1.1A50.32,50.32,0,0,1,75.84,112c2.93-11.39,9.51-20.33,18.43-27.74A4.94,4.94,0,0,1,94.83,84Z"></path></svg>