<svg xmlns="http://www.w3.org/2000/svg" id="Layer_1" data-name="Layer 1" viewBox="0 0 250 250"><path d="M194.39,135.36l-3-6.25c-3.39,0-7.14,0-10.89,0a1.44,1.44,0,0,0-.87.51c-.93,1.08-1.74,2.27-2.74,3.28q-7.83,7.9-15.73,15.74c-.32.32-.63.66-1,1.05l14.06,10.41q7.26,5.38,14.53,10.74a13.34,13.34,0,0,1,5.59,11.43c0,3.2,0,6.4,0,9.69a21.37,21.37,0,0,1,8.42,3.9,20,20,0,0,1,6.94,20.48,19.82,19.82,0,1,1-24.31-24c1-.27,1.41-.62,1.37-1.73-.09-2.74-.07-5.48,0-8.22a6.32,6.32,0,0,0-2.81-5.59q-14.16-10.41-28.25-20.88l-1.08-.83c-1.71,1.75-3.42,3.53-5.17,5.29q-8.75,8.77-17.51,17.53a5.83,5.83,0,0,1-1.52,1.31c-1.52.66-1.65,1.8-1.61,3.24.1,3.16,0,6.32,0,9.45,11.24,2.58,17.15,12.42,15.86,22.08a19.78,19.78,0,0,1-38.78,2.41,19.21,19.21,0,0,1,2.42-15.54A20.05,20.05,0,0,1,121.2,192c0-3.78,0-7.48,0-11.19a1.13,1.13,0,0,0-.32-.73c-2.71-2.51-5.5-4.93-8.14-7.52-5.83-5.73-11.58-11.54-17.42-17.38l-12.25,9.06c-5.59,4.14-11.15,8.31-16.78,12.38a6.57,6.57,0,0,0-3,6c.11,3.07,0,6.15,0,9.34,6.52,1.55,11.41,5.22,14.24,11.37a19.21,19.21,0,0,1,1.11,13.2,19.78,19.78,0,0,1-38.78-2.64c-1.16-9.21,4.19-19.22,15.83-22,0-3.13,0-6.29,0-9.45a13.54,13.54,0,0,1,6-11.88c9.34-6.84,18.63-13.76,27.94-20.65.06-.05.1-.13.28-.34-2.28-2.25-4.58-4.51-6.86-6.78q-5.46-5.44-10.9-10.92a5.66,5.66,0,0,1-1.26-1.56c-.49-1.14-1.31-1.28-2.42-1.26-3.33.07-6.66,0-10.09,0-1.47,6.26-4.89,11-10.67,13.94a18.83,18.83,0,0,1-11.89,1.81,19.72,19.72,0,0,1-16.75-20,19.88,19.88,0,0,1,39.37-3.33c3.68,0,7.39,0,11.09,0a1.61,1.61,0,0,0,1-.6c.75-.85,1.37-1.82,2.16-2.62q8.3-8.34,16.63-16.64l.56-.61-11.1-8.22c-6-4.41-11.93-8.79-17.85-13.25a12.46,12.46,0,0,1-5.13-10.23c-.05-3.71,0-7.42,0-11.25A19.9,19.9,0,0,1,41.45,46.67a19,19,0,0,1-1.09-13.19A19.82,19.82,0,1,1,63.3,58.06v5c0,2.07,0,4.13,0,6.2a5.15,5.15,0,0,0,2.13,4.24l29.44,21.8c.1.07.22.12.59.33,1.81-1.88,3.65-3.84,5.55-5.74q8.68-8.74,17.42-17.45a3.86,3.86,0,0,1,1.16-1c1.55-.6,1.68-1.76,1.64-3.22-.09-3.36,0-6.73,0-10.18a19.82,19.82,0,0,1-13.82-10.5,18.82,18.82,0,0,1-1.67-13.25,19.75,19.75,0,0,1,20.67-15.51c9.44.62,17.5,8.34,18.34,17.56a19.91,19.91,0,0,1-15.92,21.7c0,4,0,8,0,12a1,1,0,0,0,.32.61c2.76,2.58,5.6,5.08,8.29,7.73,5.62,5.52,11.16,11.13,16.74,16.69.14.15.3.28.52.48,2.2-1.59,4.39-3.13,6.54-4.73,7.41-5.49,14.78-11,22.24-16.47a7,7,0,0,0,3.26-6.4c-.12-3.27,0-6.55,0-9.88a19.39,19.39,0,0,1-8.84-4.24c-6.36-5.58-8.7-12.6-6.37-20.71s8-12.93,16.41-14.12a19.77,19.77,0,0,1,9,38.3l-.12,0c-2.69.85-2.59.85-2.54,3.59.07,3.24.1,6.5-.14,9.73-.31,4.17-2.61,7.21-6,9.65-9.24,6.77-18.43,13.62-27.63,20.43-.1.07-.19.17-.45.41,2.7,2.66,5.4,5.29,8.07,7.94q4.84,4.82,9.66,9.66a4.79,4.79,0,0,1,1.21,1.43c.49,1.3,1.41,1.38,2.59,1.36,3.32-.06,6.65,0,10.06,0,.13-.36.27-.7.36-1.05a19.82,19.82,0,1,1,5.77,19.41,30.1,30.1,0,0,1-3.23-4.37l.11.05-.05-.06,0,.07-.24-.24Zm-41.88,11.19a18.86,18.86,0,0,0-7.71-5.39c-2.91-1.09-5.77-2.31-8.68-3.42a5.94,5.94,0,0,1-3.65-4.23,15.76,15.76,0,0,1-.54-3.48,2.17,2.17,0,0,1,.67-1.55A25.25,25.25,0,0,0,140,117.83c.32-.84.5-1.72,1.6-2,.41-.1.79-.62,1.05-1a9.1,9.1,0,0,0,1.26-6.43,3.76,3.76,0,0,0-2.1-3.12,2.37,2.37,0,0,1-1.39-1.58,16.57,16.57,0,0,0-14.77-10.53c-7.22-.1-12.48,3.18-15.79,9.57-.56,1.08-.82,2.23-2.18,2.81a3.48,3.48,0,0,0-1.42,2c-1,2.8-.28,5.38,1.31,7.76.24.36.73.55,1.07.85s.77.58.91,1a26.26,26.26,0,0,0,8,11.61,1.68,1.68,0,0,1,.4,1.07,6.3,6.3,0,0,1-.08,1.5c-.4,2.69-1,5.21-4,6.35s-5.91,2.4-8.88,3.57a18.75,18.75,0,0,0-7.6,5.31l4.33,4.33,21.63,21.63c1.29,1.29,1.83,1.29,3.14,0l12.07-12.07Zm37.67-95.79a12.21,12.21,0,1,0-11.94-12.38A12.29,12.29,0,0,0,190.18,50.76ZM71.68,38.67a12.18,12.18,0,1,0-12.19,12.1A12.25,12.25,0,0,0,71.68,38.67Zm106.6,172.58a12.2,12.2,0,1,0,12.17-12A12.27,12.27,0,0,0,178.28,211.25Zm-106.6.23a12.18,12.18,0,1,0-12,12.19A12.15,12.15,0,0,0,71.68,211.48Z"></path></svg>