<svg xmlns="http://www.w3.org/2000/svg" id="Layer_1" data-name="Layer 1" viewBox="0 0 250 250"><path d="M179.68,175.11,162.2,158.94c-15.32,11.05-20.43,12.38-38.93,10.2-.18.42-.41.86-.56,1.32-2.72,8.73-5.44,17.47-8.13,26.13,9.13,7,11.6,14.68,7.39,22.6A16.28,16.28,0,0,1,91.55,208.7c1.37-8.52,8.36-13.4,19.28-13.32,2.82-9.06,5.66-18.19,8.55-27.46-18.3-8.14-27.3-22.17-26.95-42.41L74.8,123c-1.92-.27-3.86-.42-5.74-.84s-3.07-.11-4,2a15.41,15.41,0,0,1-15.25,8.69A15.6,15.6,0,0,1,35.9,121.7c-1.82-6.2-.39-11.73,4.31-16.14a14.9,14.9,0,0,1,16.39-3.2c6,2.29,9.36,6.88,10.1,13.31.08.66.1,1.32.17,2.26L93,121.63c3.5-15.29,12.52-25.8,27.26-31.52-.12-.63-.2-1.27-.38-1.89-3-10.34-6-20.66-8.83-31-.54-1.94-1.24-2.58-3.38-2.53a16.26,16.26,0,0,1-2.22-32.39,16.28,16.28,0,0,1,10.9,29.83c-.7.46-1.42.87-2.33,1.42l10.18,35.42C140.39,86,154,90.4,165.14,102.62l8.44-6.18c-2.86-5.51-3.47-11.11-1-16.81a17.61,17.61,0,0,1,8.72-9.09A18.16,18.16,0,0,1,201.9,99.86c-7,6.83-16.39,6.8-26-.24l-8.4,6.16a41.33,41.33,0,0,1-2.74,50.15l17.56,16.28c12.43-6.6,22.27-5.34,28.8,3.6A19.59,19.59,0,0,1,183.5,203C175,196.56,173.55,186.57,179.68,175.11ZM133.5,91.91a37.21,37.21,0,1,0,37.28,36.91A37.27,37.27,0,0,0,133.5,91.91ZM195.34,203a15.68,15.68,0,1,0-15.7-15.66A15.74,15.74,0,0,0,195.34,203ZM203.46,86.8a14.27,14.27,0,1,0-14.26,14.35A14.43,14.43,0,0,0,203.46,86.8ZM119.89,38.34a12.33,12.33,0,1,0-12.22,12.47A12.35,12.35,0,0,0,119.89,38.34Zm0,173.16A12.32,12.32,0,1,0,107.68,224,12.37,12.37,0,0,0,119.89,211.5ZM51.3,105.23A12,12,0,0,0,39.05,117a12.08,12.08,0,0,0,11.73,12,11.92,11.92,0,0,0,12-11.66A11.77,11.77,0,0,0,51.3,105.23Z"></path><path d="M136.64,127.77l12,3.31c1.68.45,2.35,1.36,2.3,3.24-.15,5.86-.05,11.73-.05,17.75h-33.6V145.4c0-3.79.07-7.57,0-11.35,0-1.5.38-2.41,1.84-2.81l12.45-3.48a13.67,13.67,0,0,1-8.52-5.91,13.13,13.13,0,1,1,24.12-8.48C148,120,143.94,125.47,136.64,127.77ZM121.23,148.1H147c0-4.21.06-8.23-.06-12.24a2.4,2.4,0,0,0-1.34-1.72,33,33,0,0,0-22.89,0,2.66,2.66,0,0,0-1.4,1.93C121.16,140,121.23,143.93,121.23,148.1Zm13-42.59a9.25,9.25,0,1,0,9.15,9.23A9.38,9.38,0,0,0,134.21,105.51Z"></path></svg>