<svg xmlns="http://www.w3.org/2000/svg" xmlns:xlink="http://www.w3.org/1999/xlink" id="Layer_1" x="0px" y="0px" viewBox="0 0 450.8 137.4" xml:space="preserve"><g>	<path fill="#FFD512" d="M413.5,22.7c12.4-2.2,24.7-4.3,37.1-6.5c-0.1-0.5-0.2-1-0.3-1.6c-3.5,0-7.1,0-10.6-0.1c0-0.2,0-0.3,0.1-0.5  c3.1-0.8,6.2-1.6,9.2-2.4c-0.1-0.4-0.2-0.7-0.2-1.1c-4.8,0-9.6-0.1-14.9-0.1c1.4-0.6,2.4-1,4.5-1.9c-2-0.8-2.9-1.4-3.8-1.6  c-4.1-0.6-8.3-0.8-12.3-1.7c-1.5-0.3-2.8-2-4.2-3.1c-5.4-1.3-11.6-2.3-17.7-2.2c-13.6,0.2-27.2,0.5-40.8,1.5  c-16.7,1.2-33.4,3.3-50.1,4.8c-20.7,1.8-41.5,3.2-62.3,5c-9.5,0.8-19,1.6-28.4,2.9c-12.6,1.7-25.2,4.1-37.8,5.9  c-13.8,2-27.7,3.4-41.4,5.8c-20.7,3.6-41.3,7.7-61.9,12c-16.2,3.4-32.2,7.6-48.5,10.7c-6.3,1.2-8.8,7.1-14.3,9.2  c13.3-1.4,25.9-7.6,39.6-4.9C28,56.1,13.9,61.3,10.4,69.1c1.4,0.3,2.8,0.6,5.2,1.1c-3.9,3.3-7.1,6.1-10.4,8.8  c0.3,0.3,0.5,0.6,0.8,0.8c7-0.9,14-1.9,21-2.8c0.1,0.4,0.2,0.9,0.3,1.3c-1.5,0.4-3,0.9-4.5,1.3c-5.8,1.5-11.6,2.9-17.3,4.6  c-2.9,0.8-4.8,2.5-2.4,6.2c2.6-0.9,5.3-1.9,8-2.8c-5.4,3-7.9,7.7-11.1,13.6c3.2-0.5,5-0.8,6-1c0.3,3.4,1.1,6.5,0.7,9.4  c-0.6,4.2-1.7,8.2,1.9,11.6c0.4,0.4,0.5,1.2,0.7,1.8c0.8,4.3,3.5,5.8,7.6,5.4c10.2-1.1,20.3-2,30.5-3.3c11.7-1.5,23.3-3.2,34.9-4.9  c2.7-0.4,5.5-0.5,8.2-1.2c2.7-0.7,5.2-2.3,7.9-2.9c4.2-0.9,8.5-1.2,12.8-1.8c10.3-1.6,20.5-3.3,30.6-4.9c2.6,6.3,1.7,7.6-4.5,7.3  c-0.8,0-1.6,0-2.4,0.2c-6.7,1.3-13.3,3-20,3.9c-10.1,1.3-20.3,1.8-30.5,2.9c-2.9,0.3-6.8-1.3-8.3,3.3c-0.1,0.3-2.1,0-3.1-0.1  c-0.7-0.1-1.4-0.7-2-0.5c-5.7,1.7-11.5,3.6-17.2,5.5c-1.8-6.3-5.4-3.2-8.4-2.6c2.3,0.1,4.6,0.2,6.9,0.3l0.1,1.6  c-7.1,1.7-14.2,3.4-21.3,5.1c0.1,0.4,0.2,0.9,0.3,1.3c3.8-0.8,7.6-1.8,11.5-2.4c14.3-2.6,28.7-5.3,43.1-7.4  c11.6-1.7,23.2-2.7,34.9-3.9c4-0.4,8.1,0,12-0.6c8.5-1.3,16.9-3.4,25.4-4.5c7.7-0.9,15.5-0.8,23.2-1.3c5.5-0.4,11.3-2.4,16.2-1.9  c9.5,1,18.1-4,27.6-1.8c3,0.7,6.6-1.4,9.9-2c3.6-0.7,7.2-1.5,10.8-1.6c16.2-0.3,32.4-0.2,48.7-0.4c1.6,0,3.1-0.8,4.7-1.1  c2.2-0.4,4.5-0.6,6.7-0.9c-1.1,0.8-2.1,1.8-3.3,2c-0.1,0-0.1,0-0.2,0l5.2-0.6c-0.3,0-0.7,0-1,0c-0.1,0-0.3-0.9-0.4-1.5  c5.7-0.1,11.4-0.3,17.1-0.4l0,0.1l17.2-2c-5.7-0.9-11.3-2.4-17.2-0.3c-0.9,0.3-2.2-0.6-3.3-0.8c-1.6-0.3-3.3-0.7-4.9-0.7  c-12,0.2-24,0.6-35.9,0.9c-3.1,0.1-6.9-0.7-9.2,0.8c-4.6,2.8-7.9,0.6-11.6-1.3c-1.1-0.6-2.2-1.7-3.3-1.7c-3.7,0.1-7.3,0.6-11.1,0.9  c0.7-1.1,1.2-1.8,1.6-2.4c-1.6-0.6-3.2-1.6-4.8-1.6c-1.2,0-2.4,1.2-3.6,1.9c1,0.7,2,1.4,3.2,2.2c-4.9,0.8-9.5,1.5-14.2,2.2  c-1.1,0.2-3.1,0.2-3.3-0.3c-2.2-4.9-6.1-2.5-9.4-2.4c-2.8,0.1-5.6,0.5-8.4,0.8c-2.3,0.2-4.9,0-4.7,3.7c0,0.4-2.3,1.7-3,1.4  c-2.4-1-4.7-2.6-6.9-3.9c0-1.7,0.1-3.4,0.2-5.4l6.7-0.6c0.1,0.3,0.1,0.6,0.2,0.9c-1.9,0.8-3.8,1.6-6.6,2.7c1.7,0.5,2.3,0.9,2.9,0.9  c15.8-1.9,31.6-3.9,47.3-5.8c2.6-0.3,6.1,1.2,5.8-4.4c0.6,0.4,1.2,0.8,1.8,1.1c-0.3,1.8-0.6,3.7-0.8,5.2c8.3-1.2,17.5-2.5,26.2-3.7  c-1-0.1-2.7-0.1-4.3-0.2c2.8-0.6,6.1-3.2,7.6,1.7c0.1,0.4,1.5,0.9,2.2,0.8c2.5-0.6,5-1.4,7.5-2.1c0-0.2,0-0.3,0-0.5  c-1.5-0.1-3-0.1-4.6-0.2c0-0.4,0-0.8,0-1.2c9.3-0.3,18.6-0.6,28-0.9c0,0.3,0,0.6,0.1,0.8c-1.9,0.4-3.7,0.7-5.4,1.1l0.5,5.3  c6.8-2.1,13.4-4.2,20.2-6.3c0.7,1.5,1.4,2.9,1.8,3.8l58.1-5.1c0-0.3,0-0.6,0-0.9c-1-0.5-1.9-0.9-4.1-2c3.9-1,6.6-1.7,9.3-2.4  c-0.1-0.3-0.1-0.6-0.2-1c-4.4-0.1-8.9-0.3-13.3-0.4c0-0.4-0.1-0.7-0.1-1.1c1.2-0.6,2.4-1.1,3.5-1.7c-0.1-0.4-0.2-0.8-0.2-1.2  l-15.3,1.3c0-0.4-0.1-0.9-0.1-1.3c1.9-0.3,3.8-0.4,5.6-0.8c1.6-0.3,3.6-0.3,4.6-1.3c5.3-5.4,10.3-7.1,18.4-5.4  c-2.6,0.6-4.3,0.9-6,1.3c4.2,0.9,8.3,1.4,12.4,1.8c4.4,0.4,6.6-3,10.5-6.1c-2.1-1.1-3.8-1.9-5-2.6c0.6-0.2,1.7-0.7,4.1-1.6  c-10.8-1.4-17.1,0.3-16.4,4.9c-1.6-1.5-2.5-2.2-3.4-3c0.3-0.5,0.7-1,1-1.4c-2.2-0.6-4.3-1.1-6.5-1.7c0-0.5,0-1.1,0.1-1.6  c8,0,16.1-0.1,24.2-0.1c-1.1-2.5-2.5-5.4-3.9-8.4c1.8-0.6,3.1-1,4.3-1.4c0-0.3-0.1-0.7-0.1-1l-32,2.8c-0.1,0.3-0.4,1.5-1.1,3.6  c-3.1-7.3-9.8-2.3-15-5c3.1-0.7,5-1.2,7-1.6c0-0.3-0.1-0.6-0.1-0.9c-3.1-0.6-6.3-1.3-9.4-1.9c0.1-0.4,0.1-0.7,0.2-1.1  c5.5,0,11,0,16.6,0c0,0.3,0,0.6,0.1,0.9c-2.1,0.4-4.2,0.7-6.6,1.1c5.5,4.1,15,2.9,41.8-4.9c-6.1-4-12.5,0.2-18-2.7  c6.5-1.8,13-3.6,19.5-5.3c0-0.2-0.1-0.4-0.1-0.7l-8.5,0.8c0-0.2-0.1-0.4-0.1-0.6c4.5-0.9,9.1-1.8,13.6-2.6c0-0.2-0.1-0.4-0.1-0.5  c-7.3,0.2-14.6,0.5-21.9,0.7c0-0.4-0.1-0.7-0.1-1.1c18.6-2.9,37.3-5.7,55.9-8.5c0-0.2,0-0.3,0-0.4c-12.5-0.7-24.9-1.4-37.4-2.1  C413.4,23,413.5,22.9,413.5,22.7z M21.9,65.7c-0.1-0.5-0.3-1-0.4-1.4c9.5-2.3,19.1-4.6,28.6-6.9c0.1,0.5,0.2,1,0.4,1.5  C40.9,61.2,31.4,63.4,21.9,65.7z M177.8,111.5c0.2-0.8,0.3-1.6,0.7-3.1c-3.9,0-7.8,0-11.8,0c0-0.5,0.1-1,0.1-1.5  c3.5-0.7,7-1.8,10.5-2c1.7-0.1,3.4,1.6,5.1,2.5c1.6,0.8,3.3,1.7,6.1,3.1L177.8,111.5z M228.4,96.2l-17,1.5c0-0.5-0.1-1-0.1-1.5  l17.1-1.5C228.4,95.2,228.4,95.7,228.4,96.2z M314.1,80c-5.4,0-10.8,0-16.3,0.1c0-0.2,0-0.5,0-0.7l16.2-1.4  C314.1,78.6,314.1,79.3,314.1,80z M311.3,53.4c0-0.4-0.1-0.9-0.1-1.3c4.7-0.4,9.1-3.3,15.1,0L311.3,53.4z M349.4,93.4L332,94.9  c-0.1-0.7-0.3-1.4-0.4-2c1.9-0.2,3.8-0.6,5.6-0.6c2.7,0.1,5.5,0.6,8.2,0.6c1.5,0,3.8,0,1.8-2.7c-0.1-0.1,0.8-1.3,1-1.3  c0.6,0.2,1.6,0.8,1.6,1.2C350,91.2,349.6,92.3,349.4,93.4z M372.1,65.4c2.8,2.3,6.6-4.5,9.3,1l-9.5,0.8  C372,66.6,372.1,66,372.1,65.4z"></path>	<path fill="#FFD512" d="M408.7,84.4c-0.4,2.3-0.6,3.5-0.8,5.2c-2.2,0.2-4.8,0.4-7.4,0.7c0-1.7-0.4-4.8,0-4.9  C403,84.6,405.8,84.6,408.7,84.4z"></path>	<path fill="#FFD512" d="M397.3,91.6c-1.1-1.6-2.1-3.3-3.2-4.9c1.5-0.7,3-1.5,5.1-2.5c-0.3,2.9-0.5,4.6-0.6,6.2  C398.2,90.9,397.7,91.2,397.3,91.6z"></path>	<path fill="#FFD512" d="M323.2,107.1c0,0.5,0.1,0.9,0.1,1.4c-5.3,0.2-10.5,0.3-15.8,0.4L323.2,107.1z"></path></g></svg>