
<svg xmlns="http://www.w3.org/2000/svg" width="1920" height="791" fill="none" viewBox="0 0 1920 791"><mask id="a" width="1920" height="791" x="0" y="0" maskUnits="userSpaceOnUse" style="mask-type:alpha"><path fill="#FFF3E4" fill-opacity=".5" d="M1920 0H0v791h1920V0z"></path></mask><g mask="url(#a)"><circle cx="232" cy="387" r="232" fill="#F1F1F1"></circle><circle cx="469.5" cy="449.5" r="169.5" fill="#F1F1F1"></circle><circle cx="733.5" cy="506.5" r="169.5" fill="#F1F1F1"></circle><circle cx="1.5" cy="258.5" r="169.5" fill="#F1F1F1"></circle><circle cx="1104.5" cy="531.5" r="144.5" fill="#F1F1F1"></circle><circle cx="1783.5" cy="633.5" r="144.5" fill="#F1F1F1"></circle><circle cx="1347.5" cy="545.5" r="191.5" fill="#F1F1F1"></circle><circle cx="1588.5" cy="599.5" r="191.5" fill="#F1F1F1"></circle><circle cx="959.5" cy="471.5" r="191.5" fill="#F1F1F1"></circle><circle cx="617.5" cy="310.5" r="221.5" fill="#F1F1F1"></circle><circle cx="174.5" cy="115.5" r="221.5" fill="#F1F1F1"></circle><circle cx="463.5" cy="115.5" r="221.5" fill="#F1F1F1"></circle><circle cx="785.5" cy="132.5" r="221.5" fill="#F1F1F1"></circle><circle cx="1035.5" cy="186.5" r="221.5" fill="#F1F1F1"></circle><circle cx="1248.5" cy="258.5" r="221.5" fill="#F1F1F1"></circle><circle cx="1256.5" cy="115.5" r="221.5" fill="#F1F1F1"></circle><circle cx="1478.5" cy="310.5" r="221.5" fill="#F1F1F1"></circle><circle cx="1538.5" cy="115.5" r="221.5" fill="#F1F1F1"></circle><circle cx="1719.5" cy="309.5" r="221.5" fill="#F1F1F1"></circle><circle cx="1881.5" cy="387.5" r="221.5" fill="#F1F1F1"></circle><circle cx="1845.5" cy="59.5" r="221.5" fill="#F1F1F1"></circle></g></svg>