<svg xmlns="http://www.w3.org/2000/svg" id="Layer_1" data-name="Layer 1" viewBox="0 0 250 250"><path d="M172.75,119.63c1.49-1.53,3-3.07,4.49-4.59,3.69-3.71,7.39-7.43,11.11-11.12a15.89,15.89,0,1,1,22.42,22.53q-18.69,18.72-37.4,37.42a3.18,3.18,0,0,0-1,2.49q0,22.59,0,45.19c0,9.48-6.84,16.34-16.28,16.34q-52.91,0-105.8,0A15.83,15.83,0,0,1,34.5,212.11q-.06-42.6,0-85.21,0-31.45,0-62.91c0-9.15,5.35-15.59,14.38-17a17.5,17.5,0,0,1,2.71-.1q45,0,90.08,0a15.46,15.46,0,0,1,11.16,4.72c5,5,10,9.94,15,15a15.51,15.51,0,0,1,4.6,11.33c0,13.34,0,26.69,0,40v1.52ZM130,57.45H50.94a5.47,5.47,0,0,0-5.85,5.79c0,.52,0,1,0,1.57q0,73.13,0,146.25c0,4.26,2,6.26,6.34,6.26h51.75q26.31,0,52.61,0c4,0,6-2,6-5.95v-34c0-.49-.05-1-.07-1.44a21.27,21.27,0,0,1-3,1.56c-7.16,2.44-14.34,4.81-21.51,7.21-2.24.75-4.36.66-6.09-1.1s-1.8-3.86-1-6.11c2.37-7,4.66-14.09,7.09-21.1A9.23,9.23,0,0,1,139.3,153Q150,142.2,160.81,131.49a3.06,3.06,0,0,0,1-2.36c0-12.72,0-25.45,0-38.17V89.24h-2.12q-12.15,0-24.3,0A5.16,5.16,0,0,1,130,84c0-.95,0-1.91,0-2.86ZM164.84,157l25.15-25-7.12-7.14-25.18,25.08ZM140.66,57.51V78.6h21.07a5.07,5.07,0,0,0-1.48-4.55L145.32,59.11A5.55,5.55,0,0,0,140.66,57.51Zm57.48,66.76c1-1.07,2.07-2.18,3.13-3.27.76-.78,1.58-1.52,2.31-2.33a5.24,5.24,0,0,0,0-7.13,5,5,0,0,0-6.95-.7c-2.12,1.86-3.94,4.08-5.81,6.06Zm-48.42,33.26c-.84.89-2.18,1.73-2.65,2.91-1.4,3.5-2.47,7.13-3.74,10.93.59-.15.95-.22,1.29-.33,2.61-.86,5.19-1.86,7.84-2.55,2.2-.58,3.51-2.09,4.75-3.46C154.71,162.52,152.27,160.07,149.72,157.53Z"></path><path d="M98.26,100q18.22,0,36.46,0c2.47,0,4.38.85,5.41,3.18a5.18,5.18,0,0,1-4.79,7.33c-3.38.09-6.77,0-10.15,0q-31.81,0-63.62,0c-4,0-6.27-2.61-5.67-6.28a5.09,5.09,0,0,1,5.19-4.2c5.67,0,11.34,0,17,0Z"></path><path d="M87.53,121.19h26.15c3.31,0,5.69,2.21,5.7,5.28s-2.39,5.29-5.7,5.29H61.53c-2.72,0-4.68-1.28-5.45-3.54a4.91,4.91,0,0,1,1.75-5.85,7.27,7.27,0,0,1,3.7-1.13c8.67-.09,17.34,0,26,0Z"></path><path d="M87.54,174.14h-26c-3.41,0-5.81-2.21-5.77-5.33s2.41-5.24,5.76-5.24h52.16c3.3,0,5.7,2.26,5.7,5.3s-2.36,5.27-5.7,5.27Z"></path><path d="M87.55,153q-13.15,0-26.3,0a5.21,5.21,0,0,1-5.13-3.39,5.3,5.3,0,0,1,1.44-5.86,5.8,5.8,0,0,1,4.09-1.34l51,0a13.34,13.34,0,0,1,2.28.08A5.28,5.28,0,0,1,114,153Q100.77,153,87.55,153Z"></path><path d="M119.4,196.14H135c3.28,0,5.6,2.18,5.61,5.2a5.28,5.28,0,0,1-5.48,5.37q-15.72,0-31.44,0a5.2,5.2,0,0,1-5.44-5.37c.06-3.07,2.34-5.19,5.6-5.2H119.4Z"></path></svg>