
<svg xmlns="http://www.w3.org/2000/svg" xmlns:xlink="http://www.w3.org/1999/xlink" viewBox="0 0 916.37 590.45"><defs><style>.cls-1,.cls-10,.cls-11,.cls-12,.cls-13,.cls-14,.cls-15,.cls-16,.cls-17,.cls-18,.cls-19,.cls-20,.cls-21,.cls-22,.cls-23,.cls-24,.cls-25,.cls-26,.cls-3,.cls-4,.cls-5,.cls-6,.cls-7,.cls-8,.cls-9{fill:none;}.cls-2{clip-path:url(#clip-path);}.cls-10,.cls-11,.cls-12,.cls-13,.cls-14,.cls-15,.cls-16,.cls-17,.cls-18,.cls-19,.cls-20,.cls-21,.cls-22,.cls-23,.cls-24,.cls-25,.cls-26,.cls-3,.cls-4,.cls-5,.cls-6,.cls-7,.cls-8,.cls-9{stroke:#020305;stroke-linecap:round;stroke-linejoin:round;}.cls-3{stroke-width:0.5px;}.cls-4{stroke-width:1.01px;stroke-dasharray:0 2.01;}.cls-5{stroke-width:1.02px;stroke-dasharray:0 2.04;}.cls-6{stroke-width:1.04px;stroke-dasharray:0 2.07;}.cls-7{stroke-width:1.05px;stroke-dasharray:0 2.1;}.cls-8{stroke-width:1.06px;stroke-dasharray:0 2.13;}.cls-9{stroke-width:1.08px;stroke-dasharray:0 2.15;}.cls-10{stroke-width:1.09px;stroke-dasharray:0 2.18;}.cls-11{stroke-width:1.1px;stroke-dasharray:0 2.21;}.cls-12{stroke-width:1.12px;stroke-dasharray:0 2.24;}.cls-13{stroke-width:1.13px;stroke-dasharray:0 2.26;}.cls-14{stroke-width:1.15px;stroke-dasharray:0 2.29;}.cls-15{stroke-width:1.16px;stroke-dasharray:0 2.32;}.cls-16{stroke-dasharray:0 2;}.cls-17{stroke-width:1px;stroke-dasharray:0 2;}.cls-18{stroke-width:1px;stroke-dasharray:0 2;}.cls-19{stroke-width:1px;stroke-dasharray:0 2;}.cls-20{stroke-width:1px;stroke-dasharray:0 2.01;}.cls-21{stroke-width:1px;stroke-dasharray:0 2.01;}.cls-22{stroke-width:1px;stroke-dasharray:0 2.01;}.cls-23{stroke-width:1px;stroke-dasharray:0 2.01;}.cls-24{stroke-width:1.01px;stroke-dasharray:0 2.01;}.cls-25{stroke-width:1.01px;stroke-dasharray:0 2.01;}.cls-26{stroke-width:1.01px;stroke-dasharray:0 2.01;}</style><clipPath id="clip-path"><rect class="cls-1" width="916.37" height="590.45"></rect></clipPath></defs><g id="OBJECTS"><g class="cls-2"><circle class="cls-3" cx="667.11" cy="504.29" r="40.91" transform="matrix(0.16, -0.99, 0.99, 0.16, 63.65, 1083.23)"></circle><circle class="cls-3" cx="667.11" cy="504.29" r="34.54" transform="translate(63.47 1083.04) rotate(-80.88)"></circle><circle class="cls-3" cx="667.11" cy="504.29" r="28.17" transform="translate(-143.7 299.52) rotate(-22.91)"></circle><circle class="cls-3" cx="667.11" cy="504.29" r="21.81" transform="translate(-143.36 298.19) rotate(-22.82)"></circle><circle class="cls-3" cx="667.11" cy="504.29" r="15.44" transform="translate(-143.02 296.86) rotate(-22.73)"></circle><circle class="cls-3" cx="667.11" cy="504.29" r="9.07" transform="translate(23.53 1038.27) rotate(-76.77)"></circle><path class="cls-3" d="M669.81,504.29a2.71,2.71,0,1,1-2.7-2.71A2.7,2.7,0,0,1,669.81,504.29Z"></path><circle class="cls-3" cx="250.56" cy="56.12" r="40.91"></circle><circle class="cls-3" cx="250.56" cy="56.12" r="34.54"></circle><circle class="cls-3" cx="250.56" cy="56.12" r="28.17"></circle><circle class="cls-3" cx="250.56" cy="56.12" r="21.81"></circle><circle class="cls-3" cx="250.56" cy="56.12" r="15.44"></circle><circle class="cls-3" cx="250.56" cy="56.12" r="9.07"></circle><path class="cls-3" d="M253.26,56.12a2.71,2.71,0,1,1-2.7-2.71A2.7,2.7,0,0,1,253.26,56.12Z"></path><path class="cls-4" d="M-17.12,283.35c19,23.39,40.6,45,66.8,57.75,35.48,17.27,82.72,15.69,111.25-16.74,32.84-37.33,51.65-74.45,104.36-79.27,37.16-3.4,81.31,12.84,101.73,47.44,12.12,20.54,18.8,44.37,28.86,66.23,24.13,52.42,65,64.87,112.86,36.87,22.88-13.37,48.77-28.83,72.9-19.88,31.64,11.74,43.58,60.19,76.49,67.08,18,3.76,35.87-6.55,53.11-14.05,41-17.84,58.08,21,95.3,16.09,9.35-1.23,17.81-6.84,27-9.41,9.44-2.67,27.94,0,24.66,14.7"></path><path class="cls-4" d="M-15.41,295.32c18.86,23.27,41,43.66,67.26,55.1,18.86,8.24,40.77,11.21,61.32,7.41,18.14-3.37,35.28-12,48.65-26.77,24.56-27.25,41.79-54.62,70.52-69.15a99.16,99.16,0,0,1,33.1-9.79c36.8-4.56,80.23,9.46,101.78,42.38,12.9,19.72,20.42,43.16,30.81,65a129.28,129.28,0,0,0,18,28.56c23.74,27.79,55.11,31.15,93.35,13.78,12.11-5.49,24.94-13.09,37.74-18.69,16.63-7.26,34.19-10,50.73-4,29.86,11.05,41.87,55.79,73,62.69,17,3.75,33.87-5.27,50.15-11.87,38.56-15.66,55.24,19.78,90.26,14.88,8.81-1.24,16.82-6.49,25.44-9.05,8.91-2.64,26.05-.5,23.39,12.51"></path><path class="cls-4" d="M-13.7,307.28C5,330.45,27.61,349.61,54,359.74a107.71,107.71,0,0,0,60.67,5.05,90.75,90.75,0,0,0,48-27c24.43-26.44,42.13-53.24,70.4-68.1a103.18,103.18,0,0,1,32.48-10.51c36.43-5.73,79.16,6.08,101.82,37.33,13.7,18.89,22.05,41.95,32.76,63.75a145.81,145.81,0,0,0,17.95,28.64C441.39,417,471.64,421.69,509.94,408c14.51-5.18,29.54-14.24,44.53-21,19.28-8.71,40.17-11.47,59.51-4.41,28.11,10.28,40.17,51.4,69.47,58.31,15.95,3.74,31.87-4,47.2-9.7,36.08-13.47,52.39,18.56,85.21,13.68,8.28-1.24,15.83-6.15,23.93-8.69,8.38-2.62,24.16-1,22.12,10.32"></path><path class="cls-4" d="M-12,319.25C6.64,342.3,29.69,360.19,56.2,369.06a109.38,109.38,0,0,0,60,2.7,97,97,0,0,0,47.39-27.3c24.3-25.64,42.47-51.86,70.28-67a107.84,107.84,0,0,1,31.85-11.22c36.07-6.94,78.12,2.68,101.87,32.26,14.51,18.07,23.67,40.75,34.72,62.52a164.77,164.77,0,0,0,17.93,28.72c22.73,28.53,52.3,35.14,90.27,24.55,17-4.75,34.14-15.38,51.31-23.35C583.8,380.72,608,378,630.14,386c26.35,9.58,38.48,47,66,53.92,14.94,3.73,29.86-2.7,44.25-7.53,33.58-11.29,49.54,17.34,80.16,12.48,7.75-1.25,14.85-5.8,22.43-8.32,7.84-2.61,22.26-1.52,20.84,8.12"></path><path class="cls-4" d="M-10.27,331.22c18.51,22.94,42,39.59,68.64,47.16a111.12,111.12,0,0,0,59.38.35,104.25,104.25,0,0,0,46.77-27.58c24.17-24.82,42.8-50.47,70.16-66a113.26,113.26,0,0,1,31.22-11.94c35.72-8.16,77.1-.71,101.92,27.2,15.33,17.24,25.34,39.52,36.67,61.29a193.22,193.22,0,0,0,17.93,28.8c22.23,28.88,51.26,37.92,88.72,29.93,19.6-4.18,38.75-16.53,58.09-25.68,24.62-11.62,52.1-14.34,77.08-5.3,24.57,8.89,36.77,42.61,62.46,49.53,13.92,3.72,27.85-1.42,41.29-5.36,31.08-9.11,46.69,16.12,75.12,11.27,7.22-1.24,13.86-5.45,20.92-7.95,7.31-2.59,20.37-2,19.56,5.93"></path><path class="cls-4" d="M-8.56,343.18C9.84,366,33.81,381.43,60.54,387.7a111.92,111.92,0,0,0,104.87-29.85c24.05-24,43.15-49.09,70.05-64.94a120,120,0,0,1,30.6-12.66c35.35-9.41,76.09-4.12,102,22.14,16.16,16.41,27,38.31,38.62,60.05a231.8,231.8,0,0,0,17.92,28.9c21.75,29.21,50.32,41,87.17,35.31,22.23-3.45,43.36-17.68,64.89-28,27.27-13.07,58.06-15.77,85.86-5.75,22.79,8.21,35.07,38.22,58.95,45.15,12.91,3.72,25.84-.15,38.34-3.19,28.56-6.95,43.84,14.9,70.07,10.07,6.68-1.25,12.87-5.11,19.41-7.58,6.78-2.58,18.48-2.54,18.29,3.73"></path><path class="cls-4" d="M-6.85,355.15a115,115,0,0,0,127.66,37.51,124.39,124.39,0,0,0,45.5-28.11c23.92-23.2,43.49-47.71,69.93-63.9a128.5,128.5,0,0,1,30-13.37c35-10.68,75.1-7.54,102,17.08,17,15.56,28.59,37.1,40.57,58.82a288.48,288.48,0,0,0,17.91,29c21.27,29.55,49.42,36.71,85.63,40.69,24.85,2.73,48-18.82,71.67-30.34,29.94-14.53,64-17.19,94.65-6.2,21,7.53,33.36,33.83,55.44,40.77,11.89,3.7,23.82,1.11,35.39-1,26-4.81,41,13.68,65,8.87,6.15-1.25,11.88-4.76,17.9-7.22,6.25-2.56,16.6-3,17,1.54"></path><path class="cls-4" d="M-5.14,367.12c18.18,22.6,43.07,35.57,70,39.21a118.45,118.45,0,0,0,57.44-6.7,138.47,138.47,0,0,0,44.88-28.38C191,348.85,211,324.92,237,308.4a138.49,138.49,0,0,1,29.35-14.09c34.6-12,74.12-11,102.05,12,17.86,14.7,30.21,35.89,42.52,57.58,5.85,10.29,11.7,20.14,17.9,29.06,20.8,29.89,48.69,41.43,84.09,46.07,27.3,3.58,52.57-20,78.46-32.67,32.6-16,70-18.6,103.43-6.65,19.22,6.87,31.66,29.44,51.93,36.39,10.88,3.69,21.79,2.36,32.43,1.14,23.48-2.7,38.15,12.46,60,7.66,5.62-1.25,10.89-4.41,16.39-6.84,5.72-2.54,14.71-3.55,15.75-.66"></path><path class="cls-4" d="M-3.42,379.08c18.06,22.5,43.41,34.25,70.48,36.57a121.61,121.61,0,0,0,56.8-9.06A156.9,156.9,0,0,0,168.11,378c23.66-21.59,44.16-44.95,69.69-61.8a150.72,150.72,0,0,1,28.72-14.8c34.22-13.3,73.16-14.45,102.11,7,18.71,13.83,31.77,34.72,44.47,56.35,5.9,10.15,11.77,20,17.88,29.14,20.39,30.19,47.76,46.52,82.55,51.45,29.8,4.23,57.17-21.11,85.24-35,35.26-17.43,75.93-20,112.22-7.09,17.44,6.2,30,25,48.42,32,9.86,3.68,19.76,3.6,29.48,3.31,20.92-.62,35.3,11.24,54.93,6.46,5.08-1.25,9.9-4.07,14.89-6.48,5.18-2.52,12.81-4.06,14.46-2.85"></path><path class="cls-4" d="M-1.71,391.05C16.23,413.43,42.05,424,69.23,425a124.86,124.86,0,0,0,56.15-11.41A180.86,180.86,0,0,0,169,384.64c23.54-20.77,44.51-43.56,69.58-60.74a166.47,166.47,0,0,1,28.09-15.52c33.82-14.65,72.21-17.92,102.16,1.9,19.57,13,33.39,33.51,46.42,55.11,6,10,11.84,19.92,17.87,29.23,19.91,30.53,46.64,51.87,81,56.84,32.35,4.68,61.77-22.26,92-37.33a155.8,155.8,0,0,1,121-7.55c15.65,5.54,28.25,20.65,44.91,27.62,8.85,3.67,17.73,4.81,26.53,5.48,18.36,1.4,32.45,10,49.88,5.26,4.55-1.26,8.92-3.72,13.38-6.12a62.7,62.7,0,0,1,13.19-5"></path><path class="cls-4" d="M0,403c17.83,22.26,44.11,31.64,71.4,31.27a129.22,129.22,0,0,0,55.51-13.76c15.35-7.71,29.57-17.76,43-29.19,23.41-20,44.85-42.18,69.46-59.69a185.48,185.48,0,0,1,27.47-16.24c33.4-16,71.25-21.42,102.2-3.16,20.44,12.06,35,32.31,48.37,53.88,6.07,9.85,11.91,19.81,17.86,29.31,19.43,30.88,45.12,59.19,79.46,62.22,35.16,3.1,66.39-23.4,98.82-39.66,40.58-20.34,87.79-22.68,129.79-8,13.85,4.9,26.55,16.26,41.4,23.23a107.14,107.14,0,0,0,23.58,7.65c15.82,3.34,29.6,8.8,44.83,4.06A56.25,56.25,0,0,0,865,439.2c4.12-2.49,9-5.08,11.92-7.25"></path><path class="cls-4" d="M1.71,415c29.93,37.43,85.61,34.89,126.73,12.51s73.61-59.95,111.7-88.09,88.06-46.65,129.09-25.18c30.89,16.18,49.22,50.83,68.17,82s43.82,63.07,77.92,67.6c37.59,5,71-24.54,105.6-42,43.25-21.8,93.75-24.09,138.58-8.43,37.27,13,81.13,58.68,119.31,16.69"></path><path class="cls-4" d="M2.89,422.05c33.53,39.45,93.64,36.58,137.67,11.19,39.31-22.66,70.87-58.93,108.07-85.73,38.33-27.6,87.89-42.7,127.88-20.07,30.38,17.35,49.28,51.06,69.93,78.42,20.44,27.09,44.73,53.82,77.81,55.79,36.25,2.17,69-26.76,103.31-43.16,42.2-20.17,90.82-21,134.13-5.37C798,426.21,845.25,473.43,881,429.17"></path><path class="cls-4" d="M4.07,429.12C41.2,470.59,105.76,467.47,152.68,439c37.58-22.8,68.14-57.9,104.44-83.37,38.57-27,87.8-38.89,126.67-15,29.93,18.42,49.22,51.22,71.68,74.81,21.82,22.91,45.64,44.57,77.7,44,34.9-.65,67-29,101-44.33,41.13-18.55,87.88-17.83,129.69-2.31,35.24,13.16,86,61.93,119.31,15.41"></path><path class="cls-4" d="M5.25,436.2C46,479.69,115,476.4,164.81,444.74c35.9-22.83,65.42-56.86,100.8-81,38.81-26.48,87.66-35,125.46-9.87,29.44,19.58,49,51.35,73.44,71.2,23,18.72,46.53,35.36,77.59,32.16,33.53-3.44,65-31.22,98.73-45.5,40.07-17,85-14.7,125.25.75,34.24,13.24,88.39,63.56,119.32,14.77"></path><path class="cls-4" d="M6.43,443.27c44.32,45.51,117.89,42.14,170.5,7.22,34.27-22.75,62.72-55.8,97.17-78.64,39.07-25.89,87.52-31.07,124.25-4.76,28.95,20.73,48.63,51.49,75.19,67.58C497.62,449.26,521,460.83,551,455c32.16-6.21,63-33.47,96.45-46.67,39-15.38,82-11.57,120.81,3.81,33.22,13.31,90.81,65.19,119.32,14.13"></path><path class="cls-4" d="M7.6,450.34c47.93,47.53,126.08,44.18,181.45,5.9,32.7-22.61,60-54.72,93.54-76.27,39.34-25.3,87.36-27.13,123,.34,28.45,21.9,48.08,51.74,76.94,64,25,10.58,48.29,17,77.38,8.54,30.78-8.94,61-35.74,94.16-47.84,37.88-13.82,79.1-8.44,116.36,6.88,32.21,13.38,93.23,66.8,119.32,13.47"></path><path class="cls-4" d="M8.78,457.41C60.3,507,143.1,503.73,201.18,462c31.15-22.4,57.34-53.62,89.9-73.91,39.62-24.68,87.19-23.18,121.83,5.45,27.94,23.08,47.44,52.19,78.7,60.34,25.78,6.73,49.16,7.87,77.27-3.27,29.4-11.64,58.94-38,91.87-49,36.78-12.28,76.2-5.38,111.92,9.94C803.89,424.92,868.32,480,892,424.36"></path><path class="cls-4" d="M10,464.48C65.08,516.05,152.61,513,213.3,467.73,243,445.6,268,415.23,299.57,396.2c39.92-24.05,87-19.22,120.62,10.55C447.61,431,467,459.6,500.64,463.48c26.57,3,50.06-1.25,77.16-15.09,28-14.31,56.91-40.32,89.58-50.18,35.67-10.76,73.27-2.25,107.48,13,30.22,13.47,98.07,70.06,119.33,12.19"></path><path class="cls-4" d="M11.14,471.55c58.72,53.6,151.07,50.92,214.28,1.93,28.19-21.84,52-51.37,82.64-69.17,40.23-23.38,86.83-15.23,119.41,15.65,26.89,25.48,46.25,50.51,82.21,53.12,27.34,2,51-10.32,77.05-26.9,26.7-17,54.87-42.65,87.29-51.35,34.55-9.27,70.31.95,103,16.06,29.17,13.61,100.48,71.69,119.33,11.55"></path><path class="cls-4" d="M12.32,478.62c62.31,55.62,159.61,53.4,225.23.61,26.75-21.52,49.37-50.22,79-66.8,40.56-22.7,86.62-11.25,118.21,20.75,26.34,26.69,45.67,54.77,84,49.5,28.36-3.9,51.92-19.39,76.94-38.71,25.39-19.59,52.83-45,85-52.52,33.42-7.81,67.38,4.08,98.59,19.12,28.16,13.68,102.91,73.31,119.33,10.91"></path><path class="cls-4" d="M13.49,485.69c65.92,57.64,168.28,56,236.18-.71C275,463.81,296.4,435.93,325,420.54c40.9-22,86.34-7.2,117,25.86,25.73,28,45.32,55.89,85.7,45.88,29.42-7.29,52.89-28.44,76.84-50.52s50.78-47.39,82.72-53.69c32.3-6.37,64.45,7.21,94.15,22.19C808.6,424,886.77,485.19,900.78,420.52"></path><path class="cls-4" d="M14.67,492.77c69.52,59.65,177.09,58.76,247.12-2,24-20.81,44.1-47.86,71.74-62.08,41.25-21.21,86.17-3.25,115.79,31,25.22,29.13,45.09,57,87.46,42.26,30.58-10.66,53.88-37.49,76.73-62.33s48.72-49.81,80.42-54.86c31.18-5,61.52,10.34,89.71,25.25,26.14,13.82,107.75,76.56,119.34,9.61"></path><path class="cls-5" d="M1.62,482.81c40.16,34,94.47,49.48,145.15,42.39a250.54,250.54,0,0,0,106.86-42.14C261,477.91,268.07,472.4,275,467c16-12.55,31.1-25.1,49.82-32.11a80,80,0,0,1,17-4.36c35.29-4.95,72.42,12.89,99.41,40,7,7,13.7,13.78,20.47,19.77,19.09,16.91,38.93,27.36,70,16.08,21.27-7.81,39.34-22.9,56.19-39.73,7.59-7.58,14.93-15.51,22.22-23.28,23.37-24.95,49.38-50.25,80.69-57.44a90.09,90.09,0,0,1,25.72-1.88c14,.89,27.83,4.6,41.53,9.75a220.1,220.1,0,0,1,22.55,10.14c11.21,5.72,30.29,19.6,49.83,30,29.85,15.82,62.09,24.54,71.34-13.56"></path><path class="cls-6" d="M-11.44,472.86c40.54,33.89,96.91,50.47,147.73,41.72,39.36-6.78,77.57-22.3,109.19-39.18,7.52-4,14.72-8.17,21.73-12.16,16.07-9.12,30.71-18.09,48.88-22.18A82,82,0,0,1,332.54,439c34.57-.68,71.94,17.66,100.5,42.44,7.41,6.43,14.63,12.47,21.84,17.78C475,514,495.76,522.59,526.41,510.87c21.49-8.21,40-23.4,57.27-40.29,7.79-7.6,15.35-15.55,22.84-23.4,23.89-25.05,50-50.77,80.94-60a99.59,99.59,0,0,1,25.31-3.94c13.88-.46,27.59,1.63,41.44,5.56a136.35,136.35,0,0,1,23.14,9.14c12,5.93,30.94,20.44,49.93,31.39,29.37,17,61.55,27.73,73.08-8.2"></path><path class="cls-7" d="M-24.49,462.9C16.41,496.66,74.86,514.33,125.8,504c40.17-8.18,79-23.91,111.52-36.22,7.64-2.89,15-5.68,22.11-8.22,16.07-5.7,30.31-11.08,47.94-12.26a92.69,92.69,0,0,1,15.95.26c33.87,3.62,71.49,22.39,101.57,44.84,7.85,5.86,15.57,11.18,23.23,15.79,21.2,12.73,42.8,19.32,73.11,7.22,21.68-8.65,40.58-23.91,58.34-40.85,8-7.63,15.76-15.61,23.46-23.53,24.41-25.16,50.64-51.23,81.2-62.56a114.22,114.22,0,0,1,24.89-6,126.59,126.59,0,0,1,41.36,1.37,99.46,99.46,0,0,1,23.72,8.14c12.82,6.13,31.6,21.28,50,32.83,28.89,18.1,61,30.91,74.83-2.85"></path><path class="cls-8" d="M-37.54,453c41.27,33.63,101.78,52.36,152.85,40.39,41-9.6,80.27-25.58,113.85-33.27,7.74-1.77,15.17-3.2,22.49-4.27,16-2.33,29.89-4.1,47-2.33A117.82,117.82,0,0,1,314.1,456c33.18,8,71.06,27.12,102.65,47.26a235.76,235.76,0,0,0,24.61,13.79c22.22,10.67,44.71,15.26,74.69,2.79,21.87-9.09,41.2-24.41,59.4-41.4,8.2-7.66,16.18-15.67,24.08-23.66,24.94-25.26,51.29-51.68,81.46-65.13a134.87,134.87,0,0,1,24.48-8,120.43,120.43,0,0,1,41.27-2.83,77.84,77.84,0,0,1,24.32,7.14c13.63,6.33,32.23,22.13,50.11,34.26,28.4,19.27,60.49,34.1,76.57,2.51"></path><path class="cls-9" d="M-50.6,443c41.65,33.5,104.21,53.27,155.42,39.73,41.77-11.05,81.54-27.33,116.18-30.32a155,155,0,0,1,22.86-.33,201.54,201.54,0,0,1,46.07,7.59c4.84,1.38,9.85,2.92,14.95,4.86,32.49,12.34,70.64,31.83,103.73,49.66a207.25,207.25,0,0,0,26,11.81c23.22,8.63,46.62,11.19,76.27-1.64,22.06-9.54,41.82-24.92,60.47-42,8.41-7.68,16.6-15.71,24.7-23.77,25.46-25.38,51.93-52.13,81.71-67.7a167.5,167.5,0,0,1,24.07-10.1c13.49-4.57,27-7.42,41.19-7a64.72,64.72,0,0,1,24.9,6.14c14.44,6.52,32.87,23,50.21,35.7,27.91,20.44,60,37.28,78.31,7.86"></path><path class="cls-10" d="M-63.65,433c42,33.38,106.63,54.16,158,39.07,42.55-12.51,82.79-29.16,118.5-27.36a113.9,113.9,0,0,1,23.24,3.61c15.71,4.09,29.06,9.8,45.13,17.51,4.65,2.24,9.5,4.56,14.44,7.17,31.8,16.76,70.24,36.53,104.82,52.07a185.27,185.27,0,0,0,27.37,9.81c24.21,6.61,48.53,7.11,77.85-6.06,22.24-10,42.43-25.43,61.54-42.53,8.61-7.71,17-15.77,25.32-23.9,26-25.48,52.57-52.55,82-70.27A214.9,214.9,0,0,1,698.18,380c13.34-5.95,26.76-10.48,41.09-11.21a55.8,55.8,0,0,1,25.49,5.13c15.26,6.71,33.51,23.87,50.31,37.14,27.4,21.64,59.42,40.47,80.06,13.22"></path><path class="cls-11" d="M-76.7,423.09c42.39,33.25,109,55,160.55,38.4,43.34-14,84.07-31.09,120.83-24.41a98.14,98.14,0,0,1,23.62,7.56c15.63,7.16,28.65,16.73,44.19,27.44,4.47,3.08,9.15,6.19,13.94,9.46A507.29,507.29,0,0,0,392.33,536a173.9,173.9,0,0,0,28.75,7.82c25.2,4.61,50.43,3,79.43-10.5,22.42-10.46,43-25.92,62.61-43.08,8.81-7.73,17.42-15.83,25.93-24,26.51-25.58,53.23-53,82.23-72.83,7.75-5.31,15.55-9.92,23.25-14.21,13.2-7.34,26.55-13.56,41-15.4,9-1.16,17.7.54,26.09,4.13,16.07,6.89,34.13,24.75,50.4,38.58,26.88,22.84,58.88,43.65,81.8,18.57"></path><path class="cls-12" d="M-89.76,413.14C-47,446.25,21.7,469,73.36,450.87c44.12-15.48,85.4-33.08,123.16-21.45a94.42,94.42,0,0,1,24,11.49c15.62,10.22,28.27,23.65,43.25,37.37,4.29,3.93,8.79,7.84,13.44,11.77,30.32,25.66,69.42,45.9,107,56.89a166.35,166.35,0,0,0,30.13,5.83c26.2,2.65,52.33-1.07,81-14.92C517.93,526.92,539,511.42,559,494.21c9-7.76,17.85-15.89,26.56-24.16,27-25.69,53.89-53.38,82.48-75.4,7.61-5.85,15.26-11.18,22.84-16.25,13-8.75,26.34-16.66,40.92-19.61,9.25-1.86,18.12-.43,26.67,3.14,16.89,7.07,34.75,25.63,50.5,40,26.35,24.06,58.35,46.84,83.54,23.92"></path><path class="cls-13" d="M-102.81,403.18c43.13,33,113.85,56.69,165.69,37.07,44.88-17,86.79-35.11,125.48-18.49a96.6,96.6,0,0,1,24.38,15.43c15.68,13.28,27.9,30.57,42.31,47.29q6.17,7.17,12.94,14.08c29.54,30.12,69,50.56,108.06,59.3a162.94,162.94,0,0,0,31.51,3.83c27.2.7,54.23-5.16,82.58-19.35,22.79-11.4,44.29-26.93,64.75-44.2,9.23-7.78,18.26-15.93,27.18-24.27,27.54-25.8,54.55-53.8,82.74-78,7.47-6.4,15-12.45,22.42-18.31,12.9-10.14,26.12-19.77,40.83-23.8,9.47-2.58,18.55-1.42,27.26,2.14,17.71,7.24,35.37,26.52,50.6,41.45,25.81,25.28,57.81,50,85.28,29.27"></path><path class="cls-14" d="M-115.86,393.23c43.5,32.86,116.2,57.41,168.25,36.4C98,411,140.63,392.47,180.2,414.09A103.37,103.37,0,0,1,205,433.47c15.79,16.35,27.59,37.46,41.38,57.22,3.95,5.61,8.06,11.12,12.43,16.38,28.74,34.58,68.62,55.16,109.15,61.7a163.49,163.49,0,0,0,32.89,1.85c28.21-1.24,56.1-9.31,84.16-23.78,22.94-11.91,44.91-27.44,65.82-44.76,9.43-7.81,18.68-16,27.8-24.4,28.06-25.91,55.26-54.17,83-80.53q11-10.42,22-20.37c12.72-11.57,25.88-22.89,40.75-28,9.68-3.31,19-2.42,27.85,1.14,18.53,7.38,36,27.42,50.69,42.88,25.25,26.52,57.28,53.21,87,34.63"></path><path class="cls-15" d="M-128.92,383.27C-85,416-10.3,441.58,41.9,419c56.17-24.28,107.85-47.24,155.27,10.73,20.44,25,33.25,59.09,52.37,85.82,35.46,49.6,90.86,69.79,144.49,64S499.7,544.23,546.67,506s89.66-85.14,133.27-130c12.57-13,25.62-26,40.65-32.19,31-12.72,58.35,21,79.23,44.45,24.68,27.76,56.74,56.4,88.76,40"></path><path class="cls-16" d="M638.47,76c-3.34,4.55-5.3,9.69-4.67,15.4,1.23,11.19,12.28,19.48,13.27,30.69,1.41,15.91-17.6,27.23-18.66,43.17-.76,11.25,8.16,21.33,18.58,25.64,11.74,4.85,26,.63,36.63,7,12.4,7.46,11.94,28.2,25.9,32.85,8,2.66,16.74-3.13,20.57-10.62s4.09-16.22,4.76-24.6c.87-10.88,1.43-20,12.24-25.87,7.42-4,16-5.1,24-7.84a60.12,60.12,0,0,0,33.34-28.69c5.52-10.55,6.68-25.69-3.1-32.48-5.85-4.06-13.73-3.66-20.62-1.85-13.13,3.44-27.57,9.74-40.78,2.17-11.28-6.47-11.74-21.41-17.76-32C717,59.93,708.88,52,698.73,49.37c-14.39-3.72-29.11,3.69-41.86,11.33C650.16,64.72,643,69.83,638.47,76Z"></path><path class="cls-17" d="M641.88,77.64c-3.15,4.32-5,9.18-4.49,14.58.72,7.55,6.05,13.78,9.4,20.59a24.42,24.42,0,0,1,2.66,8.58c1.42,15-16.12,25.9-16.08,40.82,0,5.67,2.33,10.57,5.46,15.42a30.21,30.21,0,0,0,12.28,11.08c10.34,5,23.34,2,33.48,6.55.56.25,1.12.53,1.67.83,12.12,6.73,12.5,25,26,29.52,7.69,2.55,16-2.38,19.84-8.92s4.57-14.26,5.58-22c1.2-9.16,1.8-17.42,9-23.27a23.8,23.8,0,0,1,2.46-1.75c6.6-4.1,14.2-5.48,21.38-8.44,12.78-5.29,24.25-15.71,31.25-28.39,2.88-5.23,5.06-11.33,5.18-17.35.12-6.58-2.44-12.91-8-16.32-5.83-3.6-13.27-3.15-19.87-1.25-10.8,3.12-22.43,8.31-33.69,5.2a25.61,25.61,0,0,1-5.51-2.26c-10.91-6.06-11.88-20.26-17.92-30.27-5.15-8.54-13-15.93-22.67-18.36-13.78-3.46-27.87,3.44-40,10.73C653,66.77,646.2,71.69,641.88,77.64Z"></path><path class="cls-18" d="M645.28,79.25c-2.95,4.08-4.71,8.67-4.3,13.75.56,7.13,5.34,13.08,8.39,19.55a24.58,24.58,0,0,1,2.46,8.12c1.42,14.18-14.52,24.61-13.5,38.47.43,5.75,3,10.17,5.84,15.44,2.65,4.95,6,9.08,11.06,11.91,9.56,5.33,22.14,2.9,32,7,.55.23,1.1.47,1.63.75,11.85,6,13.06,21.86,26.14,26.18,7.39,2.45,15.23-1.62,19.11-7.21s5-12.31,6.39-19.49c1.61-8.45,2.27-16.56,8.62-22.4a23,23,0,0,1,2.16-1.77c5.77-4.17,12.36-5.86,18.73-9,11.38-5.69,22.16-16,29.17-28.1,3.16-5.45,5.87-11.62,6.16-18,.29-6.85-2.71-13.64-8.63-16.88s-12.81-2.64-19.12-.64c-10.33,3.28-21.34,8.59-32.26,5.78a23.72,23.72,0,0,1-5.35-2.09c-10.54-5.65-12-19.1-18.07-28.57-5.11-8-12.64-14.81-21.9-17.06-13.15-3.18-26.61,3.19-38.16,10.14C655.75,68.83,649.38,73.54,645.28,79.25Z"></path><path class="cls-19" d="M648.69,80.86a19.83,19.83,0,0,0-4.12,12.93c.41,6.69,4.63,12.36,7.38,18.5a24.9,24.9,0,0,1,2.26,7.65c1.43,13.33-12.78,23.37-10.91,36.13.86,5.85,3.7,9.76,6.21,15.46,2.27,5.17,4.84,9.55,9.84,12.74,8.8,5.62,20.95,3.83,30.58,7.49.54.2,1.07.42,1.6.66,11.56,5.27,13.62,18.69,26.25,22.85,7.1,2.34,14.49-.87,18.38-5.51s5.52-10.35,7.21-16.93c2-7.75,2.75-15.7,8.2-21.53a24.26,24.26,0,0,1,1.85-1.79c5-4.23,10.52-6.24,16.09-9.64,10-6.1,20.09-16.32,27.08-27.8,3.44-5.68,6.69-11.92,7.13-18.6.48-7.13-3-14.38-9.28-17.44-5.7-2.76-12.36-2.13-18.38,0-9.85,3.43-20.25,8.88-30.83,6.37a22.19,22.19,0,0,1-5.19-1.92c-10.17-5.25-12.14-18-18.23-26.88-5-7.41-12.3-13.69-21.11-15.75-12.54-2.92-25.37,2.93-36.32,9.54C658.55,70.88,652.56,75.39,648.69,80.86Z"></path><path class="cls-20" d="M652.09,82.46a19.45,19.45,0,0,0-3.93,12.11c.25,6.27,3.92,11.66,6.37,17.45a25.72,25.72,0,0,1,2.06,7.2c1.43,12.46-10.89,22.14-8.33,33.77,1.33,6,4.41,9.35,6.59,15.48,1.91,5.38,3.7,10,8.62,13.58,8,5.85,19.76,4.76,29.14,8,.52.18,1,.37,1.55.57,11.29,4.55,14.19,15.52,26.38,19.52a18.1,18.1,0,0,0,17.64-3.8c3.9-3.7,6-8.4,8-14.37,2.42-7.06,3.24-14.86,7.79-20.67a21.57,21.57,0,0,1,1.54-1.8c4.14-4.31,8.68-6.64,13.44-10.25a110.93,110.93,0,0,0,25-27.51c3.75-5.89,7.51-12.21,8.12-19.22.64-7.4-3.18-15.14-10-18-5.6-2.37-11.89-1.61-17.62.58-9.39,3.6-19.18,9.17-29.41,7a21.18,21.18,0,0,1-5-1.75c-9.79-4.84-12.27-16.8-18.39-25.19-5-6.84-12-12.57-20.32-14.44-11.93-2.66-24.13,2.68-34.48,9C661.35,72.94,655.75,77.25,652.09,82.46Z"></path><path class="cls-21" d="M655.49,84.07a19.09,19.09,0,0,0-3.74,11.29c.1,5.83,3.21,10.94,5.36,16.4A27,27,0,0,1,659,118.5c1.44,11.59-8.88,20.91-5.74,31.42,1.83,6.14,5.12,8.93,7,15.5,1.56,5.58,2.56,10.42,7.4,14.41,7.33,6,18.56,5.69,27.69,8.43.51.15,1,.31,1.52.49,11,3.82,14.74,12.34,26.5,16.18a19.61,19.61,0,0,0,16.9-2.1c3.92-2.75,6.46-6.44,8.84-11.81,2.83-6.36,3.71-14,7.37-19.8.38-.62.79-1.23,1.23-1.82,3.32-4.38,6.85-7,10.8-10.85a174,174,0,0,0,22.9-27.22c4-6.1,8.32-12.5,9.09-19.84.82-7.67-3.39-15.92-10.6-18.57-5.5-2-11.44-1.1-16.88,1.19-8.91,3.76-18.09,9.45-28,7.56a20.9,20.9,0,0,1-4.86-1.58c-9.42-4.44-12.39-15.66-18.55-23.5-4.93-6.28-11.62-11.45-19.53-13.13-11.31-2.4-22.89,2.42-32.64,8.35C664.15,75,658.93,79.11,655.49,84.07Z"></path><path class="cls-22" d="M658.9,85.68a18.67,18.67,0,0,0-3.55,10.47c-.07,5.4,2.49,10.23,4.34,15.35a29.71,29.71,0,0,1,1.66,6.27c1.44,10.74-6.74,19.67-3.16,29.07,2.4,6.28,5.85,8.51,7.34,15.53,1.22,5.77,1.44,10.82,6.18,15.23,6.64,6.2,17.37,6.62,26.25,8.91l1.47.4c10.73,3.09,15.31,9.17,26.62,12.85,6.22,2,12.22,1.4,16.17-.4s6.94-4.49,9.66-9.25c3.23-5.65,4.18-13.18,6.94-18.93.3-.62.6-1.24.94-1.84,2.49-4.46,5-7.44,8.14-11.45,5.76-7.37,14.05-17.14,20.82-26.92,4.36-6.31,9.12-12.8,10.07-20.47,1-8-3.59-16.74-11.26-19.13-5.38-1.68-11-.59-16.14,1.79-8.44,3.92-17,9.75-26.56,8.15a19.08,19.08,0,0,1-4.7-1.41c-9-4-12.5-14.5-18.71-21.8-4.86-5.72-11.28-10.33-18.74-11.83C692,64.14,681,68.44,671.88,74,666.94,77.05,662.11,81,658.9,85.68Z"></path><path class="cls-23" d="M662.3,87.29a18.7,18.7,0,0,0-3.36,9.64c-.21,5,1.78,9.53,3.33,14.31a34.08,34.08,0,0,1,1.46,5.81c1.45,9.87-4.51,18.39-.57,26.72,3,6.39,6.59,8.08,7.71,15.54.89,6,.34,11.2,5,16.07,6,6.32,16.17,7.55,24.8,9.38l1.44.31c10.45,2.37,15.86,6,26.74,9.52a31,31,0,0,0,15.43,1.31,16.31,16.31,0,0,0,10.48-6.7c3.64-4.95,4.64-12.35,6.52-18.06.21-.63.4-1.25.63-1.86a77.54,77.54,0,0,1,5.5-12.05c4.35-7.81,12.06-17.39,18.73-26.63,4.69-6.5,9.93-13.09,11-21.09,1.15-8.22-3.78-17.58-11.92-19.69-5.25-1.36-10.52-.09-15.38,2.4-8,4.08-15.93,10-25.14,8.74a18.22,18.22,0,0,1-4.54-1.24c-8.67-3.62-12.61-13.37-18.87-20.11-4.79-5.16-10.94-9.22-17.95-10.52-10.09-1.86-20.41,1.92-29,7.17A38.94,38.94,0,0,0,662.3,87.29Z"></path><path class="cls-24" d="M665.71,88.9a18.84,18.84,0,0,0-3.18,8.82c-.37,4.54,1.07,8.81,2.32,13.26a46.64,46.64,0,0,1,1.26,5.34c1.45,9-2.2,17.06,2,24.37,3.72,6.47,7.35,7.67,8.09,15.57.57,6.17-.73,11.55,3.74,16.9,5.34,6.41,15,8.48,23.36,9.85l1.39.23c10.17,1.64,16.43,2.82,26.86,6.18a55.55,55.55,0,0,0,14.7,3c4,.1,7.9-.58,11.3-4.14,4.06-4.24,5.09-11.53,6.1-17.19.11-.64.21-1.26.32-1.88.85-4.62,1.3-8.26,2.85-12.65,2.92-8.27,10.1-17.63,16.64-26.33,5-6.69,10.73-13.4,12-21.72,1.3-8.5-4-18.46-12.58-20.25-5.13-1.07-10.07.42-14.64,3-7.5,4.24-14.84,10.32-23.72,9.33a17,17,0,0,1-4.37-1.07c-8.3-3.22-12.71-12.24-19-18.42A32.67,32.67,0,0,0,704,71.91c-9.46-1.6-19.16,1.66-27.1,6.57A35.52,35.52,0,0,0,665.71,88.9Z"></path><path class="cls-25" d="M669.11,90.51a19.33,19.33,0,0,0-3,8c-.53,4.11.36,8.1,1.31,12.2.38,1.61.76,3.23,1.06,4.89,1.46,8.15.15,15.66,4.6,22s8.11,7.24,8.46,15.59c.26,6.37-1.76,11.89,2.51,17.73,4.75,6.5,13.8,9.41,21.92,10.32l1.36.14c9.89.91,17-.35,27,2.85,5.34,1.71,10,3.67,14,4.72s8.38,1.37,12.12-1.59c4.47-3.54,5.51-10.71,5.67-16.32,0-.64,0-1.27,0-1.9,0-4.69-.56-8.67.21-13.25,1.46-8.72,8.14-17.85,14.55-26,5.38-6.86,11.54-13.69,13-22.34s-4.15-19.38-13.24-20.81c-5-.79-9.61.93-13.89,3.61-7,4.41-13.75,10.61-22.29,9.93a16.3,16.3,0,0,1-4.21-.9c-7.93-2.82-12.8-11.12-19.18-16.73a32.46,32.46,0,0,0-16.39-7.91c-8.85-1.33-17.92,1.41-25.26,6A32.25,32.25,0,0,0,669.11,90.51Z"></path><path class="cls-26" d="M672.52,92.12a20.49,20.49,0,0,0-2.81,7.17,31.32,31.32,0,0,0,.3,11.16c.26,1.47.56,2.94.86,4.42,1.46,7.29,2.52,14.18,7.18,19.67,5.37,6.34,8.89,6.83,8.84,15.61,0,6.59-2.75,12.22,1.29,18.57,4.19,6.58,12.6,10.33,20.47,10.79.45,0,.88,0,1.32.05,9.62.19,17.55-3.52,27.1-.48,5,1.6,9.21,4.42,13.23,6.42s8.87,3.34,12.94,1c4.89-2.82,5.93-9.87,5.25-15.45-.08-.65-.18-1.29-.29-1.92-.81-4.77-2.44-9.07-2.44-13.85,0-9.16,6.19-18.07,12.47-25.74,5.74-7,12.34-14,14-23s-4.35-20.35-13.9-21.38c-4.89-.52-9.15,1.45-13.14,4.23-6.56,4.56-12.68,10.9-20.87,10.52a16.17,16.17,0,0,1-4-.73c-7.56-2.41-12.88-10-19.34-15a32.29,32.29,0,0,0-15.6-6.6,36.09,36.09,0,0,0-23.42,5.38A28.81,28.81,0,0,0,672.52,92.12Z"></path><path class="cls-4" d="M672.59,110.19A35,35,0,0,0,683,131.47c6.32,6.08,9.68,6.42,9.22,15.63-.35,6.79-3.69,12.53.07,19.4a22.46,22.46,0,0,0,19,11.26c9.82,0,19-6.86,28.5-3.85,4.75,1.5,8.46,5.18,12.49,8.12s9.35,5.3,13.76,3.53c5.3-2.11,6.34-9,4.83-14.58s-4.81-10.75-5.68-16.39c-1.49-9.59,4.25-18.28,10.38-25.45s13.15-14.28,14.95-23.59S786,84.18,776,83.61c-12.65-.72-19.21,16.07-31.84,15.94-9.09-.08-15.71-8.7-23.39-13.9-14.61-9.89-36.58-5.94-44.86,8.07A26.82,26.82,0,0,0,672.59,110.19Z"></path></g></g></svg>