<svg xmlns="http://www.w3.org/2000/svg" id="Layer_1" data-name="Layer 1" viewBox="0 0 474 438.5"><defs><style>.cls-1,.cls-6{fill:#ffd512;}.cls-2,.cls-5{fill:#fff;}.cls-2{opacity:0.7;isolation:isolate;}.cls-12,.cls-3{fill:none;}.cls-10,.cls-11,.cls-12,.cls-13,.cls-3,.cls-5,.cls-6,.cls-7,.cls-9{stroke:#263238;}.cls-10,.cls-11,.cls-3,.cls-5,.cls-6,.cls-7,.cls-9{stroke-linecap:round;stroke-linejoin:round;}.cls-4{opacity:0.1;}.cls-13,.cls-7,.cls-8{fill:#263238;}.cls-9{fill:gray;}.cls-10{fill:#ababab;}.cls-11{fill:#ccc;}.cls-12,.cls-13{stroke-miterlimit:10;}.cls-14{fill:#ffc727;}</style></defs><g id="freepik--background-simple--inject-3"><path class="cls-1" d="M394.7,66C377.54,48.43,357.88,33.81,337,23.57,305.17,8,270.12.47,235.06,0,132.63-1.29,124.83,124.82,93.33,142.35S4.75,162,2.78,232.08C1.54,276.19,11.37,321.55,39,355.92c25.31,31.48,62.49,47.43,99.13,59.22,41.13,13.23,84.76,26.22,128,17.29,44.41-9.17,75.61-46,112.08-70.91,23-15.68,43.57-32.18,57.74-57.34,1.7-3,3.29-6.07,4.8-9.18,19-39.09,22.7-84.18,12.23-126.48C443.62,130.56,422.42,94.41,394.7,66Z"></path><path class="cls-2" d="M394.7,66C377.54,48.43,357.88,33.81,337,23.57,305.17,8,270.12.47,235.06,0,132.63-1.29,124.83,124.82,93.33,142.35S4.75,162,2.78,232.08C1.54,276.19,11.37,321.55,39,355.92c25.31,31.48,62.49,47.43,99.13,59.22,41.13,13.23,84.76,26.22,128,17.29,44.41-9.17,75.61-46,112.08-70.91,23-15.68,43.57-32.18,57.74-57.34,1.7-3,3.29-6.07,4.8-9.18,19-39.09,22.7-84.18,12.23-126.48C443.62,130.56,422.42,94.41,394.7,66Z"></path></g><g id="freepik--Clouds--inject-3"><path class="cls-3" d="M310.16,69.67a9.1,9.1,0,0,1-3.54,1.74c-3.55.79-13,.39-14.6,4.73a9.41,9.41,0,0,1-5.91,5.52s-7.49.4-7.89,2S275.07,88,275.07,88h129s4.34-6.7-2.76-13c-6.21-5.52-17.56,2.84-19-4"></path><path class="cls-3" d="M381.13,60.64c-1.44-5.19-4.47-12.19-10.62-14.79-10.26-4.34-18.93,1.58-21.3,7.49s-3.94,9.86-13,4.73-17-4.73-19.72,2a31.38,31.38,0,0,1-2.93,5.56"></path><path class="cls-3" d="M91,138h44.9s2.62-4-1.67-7.87-12.65,3.34-11.45-4.77c0,0-1-10-7.16-12.64a10,10,0,0,0-9.9.9"></path><path class="cls-3" d="M102.74,117.25c-1.43,3.58-2.39,6-7.87,2.86s-10.26-2.86-11.93,1.2-3.82,6.2-6,6.67-7.87.24-8.83,2.87a5.73,5.73,0,0,1-3.58,3.34s-4.53.23-4.77,1.19A9.29,9.29,0,0,1,57.85,138H84"></path><path class="cls-3" d="M315,138h21.46s2.62-4-1.67-7.87-12.64,3.34-11.45-4.77c0,0-.95-10-7.16-12.64a9.67,9.67,0,0,0-12.88,4.53c-1.44,3.53-2.38,6-7.87,2.86s-10.26-2.86-11.92,1.2-3.82,6.2-6,6.67-7.87.24-8.82,2.87a5.73,5.73,0,0,1-3.58,3.34s-4.53.23-4.77,1.19a9.29,9.29,0,0,1-1.91,2.62H308"></path></g><g id="freepik--plants-2--inject-3"><g class="cls-4"><path d="M11.29,204.18C15.23,205,24,202.85,24,202.85s-3.14-5.35-3.38-5.66c-2.81-3.62-10.37-9-15.18-7.2a6.08,6.08,0,0,0-3.4,7.9,4.8,4.8,0,0,0,.26.57C3.85,201.72,7.94,203.51,11.29,204.18Z"></path><path d="M19.88,229c3.84-.27,11.19-4.25,11.78-4.57a107.39,107.39,0,0,0,7.63,12.13c1.62,2.26,3.33,4.49,5.07,6.7-1-.89-1.8-1.68-1.93-1.78-3.66-2.74-12.36-5.89-16.54-2.93a6.08,6.08,0,0,0-1.2,8.51c.13.17.27.34.41.49,2.38,2.72,6.79,3.37,10.2,3.13s9.8-3.52,11.46-4.4c.68.84,1.34,1.69,2,2.53,3.26,4,6.53,8,9.62,12.06,1.09,1.42,2.1,2.86,3.13,4.29-.84-.79-1.55-1.45-1.67-1.54-3.67-2.75-12.36-5.9-16.54-2.93a6.06,6.06,0,0,0-1.23,8.48,5.49,5.49,0,0,0,.44.52c2.38,2.73,6.79,3.37,10.2,3.13s9.18-3.2,11.16-4.24c1,1.5,2,3,2.92,4.5.6,1,1.24,2,1.78,3.07l1.66,3.13c1,2,2,4.12,2.91,6.12.64,1.39,1.23,2.72,1.82,4.07-1.07-1.43-3.21-4.18-3.42-4.39-3.2-3.26-11.32-7.69-15.91-5.4a6.08,6.08,0,0,0-2.48,8.22c.11.19.22.37.34.55,1.94,3.06,6.2,4.36,9.61,4.64,3.75.31,11.33-2.37,12.27-2.71,1,2.23,1.9,4.4,2.74,6.47q.94,2.28,1.77,4.41l3.12-.68-2.09-4.92c-1-2.26-2.07-4.66-3.22-7.11a63.86,63.86,0,0,0,6.15-4.72c3.17,2.22,10.45,4,11.39,4.27-.42,2.39-.84,4.71-1.28,6.9-.23,1.16-.46,2.25-.69,3.34l3.3-.72c.13-.68.25-1.35.37-2.06.44-2.43.85-5,1.25-7.71,1,0,9-.13,12.45-1.72,3.1-1.45,6.64-4.15,7.4-7.69a6.07,6.07,0,0,0-4.42-7.36c-.21,0-.43-.09-.64-.12-5.09-.56-11.17,6.41-13,10.59-.11.25-1,3.06-1.54,4.84.15-1.1.32-2.16.46-3.29.31-2.23.55-4.46.82-6.87.09-1.16.18-2.34.27-3.53s.09-2.43.14-3.66c0-2.86,0-5.75-.18-8.66,2,.26,8.91,1.1,12.2.14s7.2-3.1,8.48-6.48a6.06,6.06,0,0,0-3.24-7.94,6.5,6.5,0,0,0-.62-.22c-5-1.33-12,4.64-14.5,8.49-.15.24-1.62,3.2-2.4,4.84-.1-1.75-.2-3.49-.36-5.26-.47-5.1-1.1-10.25-1.7-15.39-.19-1.58-.36-3.15-.53-4.72.69.1,8.94,1.28,12.63.2,3.28-1,7.19-3.1,8.48-6.48a6.07,6.07,0,0,0-3.26-7.94,4.44,4.44,0,0,0-.61-.22c-5-1.33-12,4.65-14.49,8.49-.19.29-2.3,4.56-2.78,5.67-.38-3.47-.73-6.92-.93-10.34a106.83,106.83,0,0,1,0-13.86c.32,0,8.92,1.32,12.7.21,3.28-1,7.2-3.09,8.48-6.48a6.07,6.07,0,0,0-3.26-7.94,4.31,4.31,0,0,0-.6-.22c-5-1.32-12,4.65-14.5,8.5a52.06,52.06,0,0,0-2.63,5.75v-.82a64.12,64.12,0,0,1,2.33-13.66c.65-2.48,1.42-4.81,2.21-7.06,1.58.4,8.81,2.15,12.32,1.53s7.49-2.29,9.14-5.51a6.07,6.07,0,0,0-2.37-8.25,6.19,6.19,0,0,0-.58-.28c-4.78-1.87-12.45,3.3-15.34,6.85-.15.19-1.53,2.33-2.52,3.9.38-1,.74-2.06,1.12-3,1.41-3.61,2.92-6.83,4.28-9.68.79-1.61,1.53-3,2.24-4.39,1.75-.41,8.8-2.17,11.58-4.3s5.59-5.48,5.57-9.1a6.08,6.08,0,0,0-5.9-6.24c-.22,0-.43,0-.65,0-5.1.55-9.53,8.66-10.45,13.15-.08.38-.64,6.59-.55,6.15h.1c-.71,1.7-1.45,3.07-2.24,4.59-1.42,2.82-3,6-4.5,9.61a106.68,106.68,0,0,0-4.23,11.74,78,78,0,0,0-2.84,13.78.49.49,0,0,0,0,.17c-.3-1.47-1.26-5.56-1.37-5.87-1.54-4.31-7-11.73-12.18-11.57A6.07,6.07,0,0,0,76,197.39a4.53,4.53,0,0,0,.07.62c.48,3.58,3.8,6.55,6.78,8.24,3.36,1.89,11.69,2.62,12.35,2.68a107.08,107.08,0,0,0-.33,14.33c.11,2.78.3,5.58.53,8.39-.29-1.27-.57-2.4-.62-2.55-1.54-4.31-7.06-11.73-12.18-11.57a6.07,6.07,0,0,0-5.7,6.4c0,.22,0,.44.08.66.48,3.59,3.8,6.56,6.78,8.24s10.11,2.48,12,2.66c.1,1.07.18,2.15.29,3.22.49,5.16,1,10.3,1.36,15.37.13,1.78.18,3.54.25,5.3-.27-1.12-.5-2.06-.55-2.2-1.54-4.32-7-11.74-12.18-11.58A6.06,6.06,0,0,0,79.23,252a4.62,4.62,0,0,0,.07.65c.48,3.59,3.81,6.56,6.78,8.24s9.42,2.4,11.42,2.62v5.36a14.54,14.54,0,0,1,0,3.55c-.14,1.2-.23,2.36-.34,3.52-.31,2.24-.6,4.54-1,6.71-.23,1.51-.48,2.95-.73,4.4-.1-1.78-.38-5.26-.43-5.54A23.63,23.63,0,0,0,89.45,271a6.54,6.54,0,0,0-.37-1.29,6,6,0,0,0-7.73-3.7,4.6,4.6,0,0,0-.61.25c-4.56,2.34-5.78,11.51-5,16,0,.26.85,3.1,1.38,4.88-.47-1-.92-2-1.42-3-1-2-2-4-3.11-6.18l-1.72-3.09c-.56-1-1.27-2.08-1.91-3.13-1.53-2.41-3.2-4.78-4.93-7.12,1.78-.86,8-4,10.26-6.62s4.29-6.55,3.5-10.08a6.09,6.09,0,0,0-7.14-4.8,5.66,5.66,0,0,0-.59.15c-4.86,1.63-7.45,10.51-7.4,15.08,0,.29.41,3.57.66,5.37-1-1.4-2.09-2.81-3.2-4.2-3.2-4-6.57-7.94-9.91-11.89l-3-3.64c.63-.3,8.16-3.87,10.64-6.81,2.21-2.61,4.29-6.55,3.5-10.08a6.06,6.06,0,0,0-7.08-4.83,4.74,4.74,0,0,0-.65.16c-4.86,1.62-7.45,10.5-7.4,15.08,0,.34.6,5.06.8,6.25-2.22-2.67-4.42-5.36-6.47-8.1a109.47,109.47,0,0,1-7.64-11.56c.29-.14,8.16-3.83,10.7-6.84,2.21-2.61,4.3-6.55,3.5-10.08A6.06,6.06,0,0,0,40,202.36c-.22,0-.43.1-.64.16C34.52,204.14,31.93,213,32,217.6c0,.36.65,5.44.83,6.35-.13-.24-.3-.46-.43-.7a79.92,79.92,0,0,1-5.44-12.78,72.16,72.16,0,0,1-2-7.11c1.54-.53,8.53-3.06,11.12-5.52s5-6,4.58-9.63a6.06,6.06,0,0,0-6.5-5.59q-.33,0-.66.09c-5,1.08-8.56,9.62-9,14.18,0,.25,0,2.79.06,4.65-.25-1-.52-2.13-.74-3.14C23,194.61,22.46,191.09,22,188c-.23-1.78-.4-3.39-.55-4.9,1.23-1.31,6.13-6.67,7.28-10s1.64-7.66-.37-10.66A6.09,6.09,0,0,0,20,160.46l-.52.37c-3.94,3.27-3.16,12.49-1.46,16.74.14.37,3.1,5.85,3.16,5.78l.08-.08c.11,1.46.25,3,.43,4.72.37,3.13.81,6.67,1.55,10.5a106.76,106.76,0,0,0,3,12.22,78.65,78.65,0,0,0,5.23,13,1.55,1.55,0,0,1,.08.15c-1-1.07-4.11-3.95-4.37-4.14-3.67-2.75-12.36-5.9-16.54-2.93a6.06,6.06,0,0,0-1.23,8.48,5.49,5.49,0,0,0,.44.52C12.06,228.58,16.47,229.22,19.88,229Z"></path><path d="M100.64,186.72c.09,0,.33-6.19.3-6.58-.35-4.57-3.71-13.18-8.69-14.38a6.07,6.07,0,0,0-7.19,4.69,4.49,4.49,0,0,0-.1.64c-.48,3.59,1.94,7.33,4.36,9.74C92.17,183.66,100.64,186.72,100.64,186.72Z"></path></g><g class="cls-4"><path d="M457.12,290.3c-3.38.12-10.37-2.8-10.37-2.8s3.32-4,3.57-4.25c2.81-2.63,9.8-6.05,13.57-4a5.12,5.12,0,0,1,1.77,7c-.09.15-.19.3-.29.44C463.62,289.25,460,290.19,457.12,290.3Z"></path><path d="M446.67,309.76c-3.16-.73-8.73-5-9.18-5.37a89.35,89.35,0,0,1-8,9.06c-1.65,1.67-3.36,3.29-5.1,4.9.9-.62,1.71-1.16,1.84-1.22,3.41-1.8,11-3.25,14.13-.23a5.12,5.12,0,0,1-.13,7.23l-.41.35c-2.34,1.95-6.09,1.89-8.89,1.24s-7.68-4.23-8.94-5.19c-.68.61-1.34,1.23-2,1.83-3.24,2.92-6.49,5.81-9.6,8.75-1.09,1-2.13,2.09-3.17,3.14.8-.54,1.48-1,1.59-1.06,3.41-1.79,11.06-3.24,14.14-.22a5.09,5.09,0,0,1-.13,7.21,4.59,4.59,0,0,1-.41.36c-2.34,2-6.09,1.9-8.9,1.25s-7.2-3.89-8.71-5c-1,1.11-2.07,2.23-3,3.35-.64.78-1.3,1.49-1.89,2.32l-1.8,2.38c-1.08,1.55-2.21,3.15-3.23,4.69-.72,1.07-1.38,2.1-2.06,3.14,1.08-1.05,3.23-3,3.43-3.19,3.1-2.29,10.43-4.88,13.94-2.37a5.13,5.13,0,0,1,.95,7.18c-.11.14-.22.27-.34.4-2,2.28-5.74,2.8-8.61,2.57-3.15-.24-9.09-3.48-9.83-3.89-1.11,1.72-2.17,3.4-3.14,5-.72,1.18-1.41,2.33-2.06,3.43l-2.5-1c.75-1.22,1.55-2.48,2.39-3.81,1.12-1.75,2.35-3.59,3.63-5.48a54.23,54.23,0,0,1-4.48-4.74c-2.93,1.42-9.22,2-10,2,0,2,.07,4,.15,5.9,0,1,.08,1.94.12,2.87l-3-1V348.2c-.49-.14-7.17-1.31-9.79-3.09-2.38-1.62-5-4.34-5.12-7.38a5.09,5.09,0,0,1,4.64-5.52,5.15,5.15,0,0,1,.56,0c4.3.22,8.42,6.82,9.42,10.54.06.22.43,2.67.64,4.23,0-.94,0-1.84,0-2.8,0-1.89.14-3.78.23-5.81.09-1,.17-2,.25-3s.25-2,.38-3.06c.33-2.38.79-4.77,1.3-7.17-1.66,0-7.55-.27-10.16-1.51s-5.56-3.53-6.18-6.52a5.11,5.11,0,0,1,3.77-6.16,4.94,4.94,0,0,1,.53-.1c4.29-.44,9.36,5.46,10.91,9,.1.22.93,2.88,1.35,4.34.32-1.44.63-2.88,1-4.32,1.07-4.18,2.28-8.37,3.47-12.56.37-1.29.71-2.57,1.07-3.85-.59,0-7.6-.13-10.52-1.52-2.6-1.24-5.57-3.54-6.18-6.52a5.08,5.08,0,0,1,3.73-6.15,3.82,3.82,0,0,1,.57-.11c4.29-.44,9.36,5.46,10.91,9,.11.26,1.3,4.09,1.55,5.07.78-2.82,1.53-5.65,2.15-8.46a89.56,89.56,0,0,0,1.85-11.51c-.28,0-7.59-.1-10.58-1.53-2.6-1.23-5.57-3.53-6.19-6.51a5.1,5.1,0,0,1,4.3-6.27c4.3-.44,9.36,5.47,10.91,9,.13.28,1.4,4.4,1.58,5.16,0-.23.06-.46.08-.68a65.21,65.21,0,0,0-.27-11.69c-.21-2.14-.53-4.18-.89-6.16-1.36.12-7.6.61-10.44-.37s-5.92-2.9-6.86-5.8a5.1,5.1,0,0,1,3.07-6.54,4.48,4.48,0,0,1,.52-.16c4.21-.91,9.9,4.4,11.83,7.74.1.18,1,2.14,1.57,3.58-.17-.89-.34-1.81-.52-2.66-.69-3.19-1.52-6.07-2.27-8.61-.44-1.44-.87-2.74-1.28-4-1.4-.58-7-3-9-5.12s-3.92-5.3-3.42-8.3a5.09,5.09,0,0,1,5.71-4.4,3.45,3.45,0,0,1,.56.1c4.16,1.14,6.76,8.47,6.94,12.32,0,.34-.35,5.56-.42,5.16h-.09c.42,1.53.86,2.77,1.31,4.14.81,2.53,1.7,5.4,2.46,8.58a92.16,92.16,0,0,1,2,10.4,67.81,67.81,0,0,1,.53,11.83.33.33,0,0,0,0,.14c.44-1.19,1.79-4.46,1.92-4.7,1.85-3.37,7.42-8.81,11.66-8a5.11,5.11,0,0,1,3.87,6.1,3.07,3.07,0,0,1-.14.52c-.88,2.92-4,5-6.73,6-3.05,1.13-10.07.62-10.62.58A90.52,90.52,0,0,1,385.16,295c-.46,2.3-1,4.6-1.56,6.9.41-1,.79-1.91.86-2,1.86-3.38,7.43-8.81,11.66-8A5.1,5.1,0,0,1,400,298a5.44,5.44,0,0,1-.15.54c-.88,2.91-4,4.94-6.73,5.94s-8.73.71-10.32.6c-.22.88-.44,1.77-.67,2.64-1.1,4.22-2.21,8.43-3.18,12.59-.34,1.47-.63,2.92-.91,4.38.37-.9.68-1.65.74-1.76,1.86-3.38,7.43-8.81,11.67-8a5.11,5.11,0,0,1,3.87,6.1,3.07,3.07,0,0,1-.14.52c-.88,2.91-4,4.94-6.74,5.94s-8.14.73-10,.62c-.25,1.5-.5,3-.68,4.47-.09,1-.25,2-.3,3l-.18,3a17.88,17.88,0,0,1-.78,5.7V348a19.72,19.72,0,0,0,1.77-4.54,19.77,19.77,0,0,1,6-8,6.13,6.13,0,0,1,.48-1,5.1,5.1,0,0,1,6.93-2l.46.28c3.48,2.56,3.27,10.34,2,14-.07.21-1.11,2.47-1.79,3.88.53-.77,1-1.52,1.58-2.31,1.08-1.55,2.2-3.08,3.41-4.72l1.84-2.34c.6-.79,1.33-1.56,2-2.35,1.6-1.79,3.3-3.54,5.05-5.26-1.37-.95-6.15-4.39-7.64-6.86s-2.7-6-1.56-8.85a5.09,5.09,0,0,1,6.54-3,4.47,4.47,0,0,1,.46.19c3.82,2,4.79,9.72,4.14,13.52,0,.23-.82,2.91-1.27,4.36,1.06-1,2.11-2.05,3.22-3.05,3.2-2.9,6.52-5.73,9.82-8.56l3-2.63c-.49-.33-6.27-4.3-7.94-7.07-1.49-2.46-2.69-6-1.56-8.84a5.11,5.11,0,0,1,6.55-3.05l.45.19c3.82,2,4.79,9.72,4.14,13.52,0,.29-1.17,4.13-1.5,5.09,2.21-1.92,4.39-3.87,6.46-5.87a90.1,90.1,0,0,0,8-8.67c-.23-.16-6.27-4.27-8-7.11-1.49-2.47-2.7-6-1.57-8.85a5.12,5.12,0,0,1,6.56-3.06,4.25,4.25,0,0,1,.49.21c3.82,2,4.79,9.72,4.14,13.52-.05.3-1.26,4.43-1.53,5.16.14-.17.3-.34.44-.52a66.84,66.84,0,0,0,6.23-9.89c1-1.91,1.86-3.79,2.65-5.63-1.21-.65-6.68-3.69-8.5-6.07s-3.34-5.69-2.53-8.62a5.1,5.1,0,0,1,6.15-3.77,5.52,5.52,0,0,1,.54.16c4,1.57,5.83,9.13,5.6,13,0,.21-.38,2.32-.66,3.85.34-.83.71-1.69,1-2.5,1.18-3,2.08-5.9,2.86-8.44.43-1.44.79-2.76,1.11-4-.85-1.26-4.21-6.36-4.72-9.26s-.34-6.59,1.73-8.81a5.11,5.11,0,0,1,7.21-.51c.13.12.27.25.39.38,2.85,3.25,1,10.8-1,14.1-.17.29-3.36,4.45-3.4,4.39l-.06-.08c-.28,1.2-.61,2.47-1,3.86-.63,2.49-1.51,5.41-2.63,8.49a90.68,90.68,0,0,1-4.1,9.76,65.6,65.6,0,0,1-6.09,10.15l-.09.11c1-.74,4-2.73,4.19-2.86,3.41-1.79,11.06-3.25,14.14-.23a5.12,5.12,0,0,1-.13,7.23l-.41.35C453.23,310.47,449.47,310.42,446.67,309.76Z"></path><path d="M385.2,263.88c-.08,0,.55-5.19.63-5.52.9-3.74,4.84-10.45,9.14-10.78a5.1,5.1,0,0,1,5.34,4.84,5.23,5.23,0,0,1,0,.56c-.07,3-2.58,5.83-4.92,7.51C392.64,262.46,385.2,263.87,385.2,263.88Z"></path></g></g><g id="freepik--character-2--inject-3"><line class="cls-3" x1="196.71" y1="5.37" x2="209.21" y2="124.16"></line><polygon class="cls-5" points="233.83 30.56 224.61 32.7 216.18 49.57 202.82 45.71 202.45 49.39 219.06 56.36 225 48.02 225 62.57 242.84 63.35 246.48 46.86 253 52.68 253 68 256.84 68 259.14 48.8 248.98 32.12 233.83 30.56"></polygon><line class="cls-3" x1="225" y1="48" x2="224.86" y2="40"></line><path class="cls-6" d="M234.06,36l2.53,4.75s7,2.22,8.24,2.53,5.07-.95,8.23-1.58,13.31,4.43,13.31,4.43l8.87.32-4.75-5.7-17.11-2.54-8.87,2.86-6-1.59L239.79,37l-2.85-4.44Z"></path><path class="cls-5" d="M235,29.25a2,2,0,0,0-2.33,1.56c-.38,1.94-.77,6.79-.77,6.79l4.65-1.36L242,38.57s1.74-5,.77-6.79S237.3,27.7,235,29.25Z"></path><path class="cls-5" d="M234,26.54s.58,5.43.78,7.37,1.36,4.85,2.13,4.27,3.49-6,3.49-6l1.36-3.68Z"></path><path class="cls-5" d="M234.06,18.61s-1.7-.15-1.7,2.63,1.23,2.93,1.23,2.93Z"></path><path class="cls-5" d="M245.43,20.93a1.52,1.52,0,0,1,1.43,1.59,2.34,2.34,0,0,1,0,.26c-.31,1.7-3.24,4-3.24,4Z"></path><path class="cls-5" d="M239.82,13s-3.1-.78-4.85,2.91-1.36,8.15-1,10.67,2.72,3.68,5.05,3.68,5.81-4.84,6.59-8.53S245.83,13,239.82,13Z"></path><polygon class="cls-5" points="199.09 43.61 199.86 49.43 203.35 49.82 202.77 43.22 199.09 43.61"></polygon><polygon class="cls-5" points="202.84 43.52 204.25 43.33 204.53 46.43 203.12 46.62 202.84 43.52"></polygon><polygon class="cls-5" points="253.59 68 251.47 71.32 252.02 74.65 253.87 74.47 257.02 73.36 257.47 68 253.59 68"></polygon><polygon class="cls-7" points="224.78 61.45 223.35 67.69 207.53 88.52 218.14 118.44 220.84 117.85 218.53 89.29 231.46 75.59 233 76.56 233.04 91.85 247.86 116.89 250.94 116.11 244 91.99 244.39 66.33 243.59 62.27 224.78 61.45"></polygon><path class="cls-5" d="M218.9,117.27l-2.22,3.14s-3.52,1.67-4.07,2.59,3,.74,3,.74l4.07-.37,4.26-2.77-2.41-3.89Z"></path><path class="cls-6" d="M197.24,9.6s-1.86,4.24-9.54,7.15S168.9,21.25,166,27.34s-2.91,5.57-3.44,9a9.27,9.27,0,0,1-2.65,5.29s2.65.27,4-1.58,1.86-7.15,4-7.95,6-2.09,6-2.09-3.7,3.18-4,4.77-.53,5.3-1.06,7.68a6.28,6.28,0,0,1-1.81,3.42s3.44,0,4.5-2.38,0-5.56,3.44-8,7.15-1.32,13-1.06,11.39-3.17,11.39-3.17Z"></path><polygon class="cls-5" points="247.4 115.79 244.85 124.26 251.18 124.01 250.36 115.04 247.4 115.79"></polygon><path class="cls-8" d="M237.7,20.44c-.11.5-.46.85-.8.78s-.52-.54-.41-1,.46-.85.8-.78S237.8,19.94,237.7,20.44Z"></path><path class="cls-8" d="M242.33,21.52c-.11.5-.46.85-.8.78s-.52-.54-.41-1,.46-.85.8-.78S242.43,21,242.33,21.52Z"></path><polyline class="cls-3" points="239.25 21.29 238.02 25 240 25"></polyline><path class="cls-3" d="M236.48,25.87s1.08,1.85,3.86.77"></path><path class="cls-3" d="M236.32,17.84a2,2,0,0,1,2.47.46"></path><path class="cls-3" d="M241.11,18.92a2.19,2.19,0,0,1,3,.87,1.51,1.51,0,0,1,.11.22"></path><path class="cls-7" d="M233,17.38,244.11,16s-.46,1.85.16,2.31S245,21,245,21l-.46,2.47,2.47-4.32s.77-3.4.15-4.48a2.7,2.7,0,0,0-1.85-1.24,6.33,6.33,0,0,0-6.18-2.77c-4.32.46-6.17,2.62-6.17,4.32Z"></path></g><g id="freepik--Mountain--inject-3"><polygon class="cls-9" points="225.19 437 244.79 324.53 170.81 256.64 197.66 165.16 168.92 165.8 156.78 176.66 131.41 176.04 127.98 188.41 121.02 187.54 118.62 191.88 106.75 215.58 100.58 239.25 77.58 268 75.06 335.84 37.98 389.36 26.32 437 225.19 437"></polygon><path class="cls-10" d="M392.54,437,368,383.17l40,26.65V367.17l-23.53-27.85L388,308,352.23,240.1l-1.78-23.5-12.19-11.32L275.7,209.8l-4.46-22-40-22.63-24,58.11-22.12,9.78,15.59,21.36-2.52,16.93,5.21,26.14-87.06,19.15s-.87,41.78-.87,45.26S98,385.45,98,385.45L97.19,437Z"></path><polygon class="cls-11" points="440.57 437 430.18 432.45 417.12 404.6 401.45 393.29 394.49 376.75 387.53 363.69 350.33 345.52 356.1 437 440.57 437"></polygon><polygon class="cls-11" points="51 437 97.72 437 98.56 410.03 94 394.37 94 352.59 83.77 350.85 75.06 360.42 61.14 368.26 30.97 438 51 438 51 437"></polygon><line class="cls-12" x1="67.3" y1="391.78" x2="68.32" y2="387.44"></line><polyline class="cls-12" points="51.21 437.21 57.41 412.72 63.26 409 66.68 394.42"></polyline><line class="cls-12" x1="41.17" y1="437.47" x2="51.02" y2="409.53"></line><line class="cls-12" x1="83.91" y1="362.41" x2="82.95" y2="366.95"></line><line class="cls-12" x1="86.14" y1="351.79" x2="84.32" y2="360.46"></line><polygon class="cls-5" points="97.51 437 98.35 409.93 94 394.27 94 352.49 85.3 408.19 77.46 410.8 74.85 426.47 73.23 437 97.51 437"></polygon><path class="cls-5" d="M246.9,406.23a57,57,0,0,0,14.39-3.92,23.43,23.43,0,0,0,9.4-7c.29-.39.56-.8.82-1.21l-6.87-31-13.55-11.82-2.26-10.14-13-10.14-4.5,15.78L224,356.92l-.56,37.19,7,13.38A122.5,122.5,0,0,0,246.9,406.23Z"></path><polyline class="cls-12" points="246.31 406.23 244.93 394.65 249 383.68 249 377.18 248.18 367.02"></polyline><polyline class="cls-12" points="254.92 371.03 257.08 383.27 261.14 384.08 260.33 394.24 261.95 399.53"></polyline><line class="cls-12" x1="253.42" y1="362.55" x2="254.14" y2="366.63"></line><line class="cls-12" x1="240.01" y1="336.54" x2="243.26" y2="369.86"></line><path class="cls-11" d="M200.74,405.4A185.49,185.49,0,0,0,229,407.5c1.9,0,3.76-.05,5.59-.12l-.2-10.46-3.38-4.5V360.3l5.64-5.64L236.07,331l-6.76,12.4-9,7.88-5.64,16.34-9,10.71-2.26,11.27-10.7,9-4.27,4.55Q194.49,404.45,200.74,405.4Z"></path><polygon class="cls-5" points="363.15 437 410.4 436.91 349.22 400.25 334.43 364.56 322.24 362.82 311.8 348.9 306.57 354.12 310.05 384.58 297 406.34 297 420.27 290.91 435.93 320.35 437 363.15 437"></polygon><polygon class="cls-11" points="339.46 437 337.23 424.55 340.74 417.2 339.78 402.83 342.66 405.71 362.14 437 339.46 437"></polygon><polygon class="cls-5" points="339.78 402.77 353.52 409.48 358.94 416.18 374.59 424.17 385.45 430.88 392.12 437 362.14 436.94 339.78 402.77"></polygon><polygon class="cls-11" points="297 406.62 297 420.55 290.44 437 315.29 437.32 310.05 407.49 320.5 397.92 306.57 354.4 310.05 384.86 297 406.62"></polygon><polyline class="cls-12" points="322.25 363.03 331.44 382.46 335.5 382.87 338.75 392.62"></polyline><line class="cls-12" x1="328.42" y1="421.81" x2="329.82" y2="426.35"></line><polyline class="cls-12" points="322.91 386.52 325.75 397.5 330.63 405.62 324.94 410.5 327.4 418.49"></polyline><polygon class="cls-11" points="206.4 163.26 186 185.57 185.3 144.67 205.61 120.01 206.4 163.26"></polygon><path class="cls-11" d="M192.64,252.58l20.86-18.41a21.89,21.89,0,0,1,4.95-3.24,37.65,37.65,0,0,1,7-2.5,64.91,64.91,0,0,1,9.4-1.56,109.21,109.21,0,0,1,12-.44,194.44,194.44,0,0,1,28.9,2.55,191.56,191.56,0,0,1,23.51,5.43c6.94,2.07,13,4.29,18.23,6.34s9.55,3.93,13.05,5.31l-27.07,17.55c-3.31-1.3-7.42-3.07-12.35-5s-10.68-4-17.25-6a178.52,178.52,0,0,0-22.24-5.09,183,183,0,0,0-27.36-2.36,100.52,100.52,0,0,0-11.38.44,60.65,60.65,0,0,0-8.89,1.49,34.42,34.42,0,0,0-6.67,2.38A21,21,0,0,0,192.64,252.58Z"></path><path class="cls-11" d="M259.06,403.12l-23.54,9a30.68,30.68,0,0,0,5.88-2.92,19.68,19.68,0,0,0,4.38-3.81,15,15,0,0,0,2.72-4.75,17.61,17.61,0,0,0-2.14-15.28,28.35,28.35,0,0,0-9.3-7.95,91.37,91.37,0,0,0-16.46-7c-6.8-2.29-15-4.55-24.65-6.9a246.37,246.37,0,0,1-38.48-12.36,132.25,132.25,0,0,1-31.41-18.26,79.2,79.2,0,0,1-21.27-25.4,74.45,74.45,0,0,1-8-33.83,88.42,88.42,0,0,1,1-14.26A79.47,79.47,0,0,1,101,246a76,76,0,0,1,5.37-12.35,77.26,77.26,0,0,1,7.49-11.23l16.21-20.33a79.89,79.89,0,0,0-13.58,24.94,83.63,83.63,0,0,0-3.42,14.13,93.08,93.08,0,0,0-1,15.1,79.16,79.16,0,0,0,8.55,35.85,84.4,84.4,0,0,0,22.54,26.94c9.48,7.63,20.75,14,33.28,19.33a260.86,260.86,0,0,0,40.72,13.14c10.25,2.5,18.88,4.91,26.07,7.34a96.73,96.73,0,0,1,17.41,7.49c4.48,2.61,7.69,5.37,9.81,8.41a17.86,17.86,0,0,1,3.21,10.09,17.25,17.25,0,0,1-.9,6.09,15.86,15.86,0,0,1-2.86,5,20.81,20.81,0,0,1-4.63,4A33.42,33.42,0,0,1,259.06,403.12Z"></path><path class="cls-5" d="M143.15,319.08c9.48,7.63,20.75,14,33.28,19.33a261.92,261.92,0,0,0,40.72,13.14c10.25,2.5,18.88,4.91,26.07,7.34a96,96,0,0,1,17.41,7.49c4.48,2.61,7.69,5.37,9.81,8.41a17.86,17.86,0,0,1,3.21,10.09,16.25,16.25,0,0,1-3.22,10.44,23.5,23.5,0,0,1-9.4,7,56.84,56.84,0,0,1-14.36,3.92,123.33,123.33,0,0,1-18.11,1.27,185.49,185.49,0,0,1-28.25-2.1,223.38,223.38,0,0,1-26.61-5.71c-8.5-2.37-16.59-5.11-24.13-8s-14.54-6-20.85-9L115.94,437H345.63a85.68,85.68,0,0,0,16.51-27.25,88.37,88.37,0,0,0,5.38-33.43c-.34-12.17-2.19-23-5.82-32.71a73.49,73.49,0,0,0-16.5-25.92c-7.47-7.66-17-14.41-28.86-20.43s-26.14-11.35-43-16.16q-16.27-4.74-28.47-9.1a163.17,163.17,0,0,1-20.26-8.58c-5.4-2.83-9.45-5.64-12.15-8.52s-4.08-5.81-4.14-8.89a15.41,15.41,0,0,1,1.58-7.28,16.5,16.5,0,0,1,6-6.38,34.65,34.65,0,0,1,11.86-4.45,89.92,89.92,0,0,1,19.17-1.49,194.44,194.44,0,0,1,28.9,2.55,191.56,191.56,0,0,1,23.51,5.43c6.94,2.07,13,4.29,18.23,6.34s9.55,3.93,13.05,5.31l14.88-67c-4.68-2-9.71-4-15.22-5.9s-11.51-3.68-18.1-5.29-13.79-3-21.71-4.21-16.59-2.07-26.09-2.63l-.87-39.62L206.06,120l.79,43.25a151.15,151.15,0,0,0-40.5,11.51A101.51,101.51,0,0,0,136.42,195a81.41,81.41,0,0,0-18.36,27.62,87.3,87.3,0,0,0-6,33.67,79.19,79.19,0,0,0,8.55,35.85A84.4,84.4,0,0,0,143.15,319.08Z"></path><polygon class="cls-11" points="115.94 437 128.72 382.67 112.35 392.91 101.93 437 115.94 437"></polygon></g><g id="freepik--plants-1--inject-3"><path class="cls-8" d="M392.21,423.9a4,4,0,0,0-2.91.57l4.48,2.69a2.5,2.5,0,0,0-1.46-3.22Z"></path><path class="cls-8" d="M393.47,388.5s.6-2.52.62-2.68c.2-1.89-.53-5.67-2.48-6.54a2.52,2.52,0,0,0-3.29,1.37c0,.09-.07.18-.09.27-.47,1.43.24,3.14,1,4.31C390.24,386.61,393.47,388.49,393.47,388.5Z"></path><path class="cls-8" d="M423.12,403.88c1.22-1.47,2.69-5,1.54-6.82a2.51,2.51,0,0,0-3.48-.68l-.24.18a5.2,5.2,0,0,0-1.5,4.18c0,1.67,1.69,5,1.7,5S423.06,404,423.12,403.88Z"></path><path class="cls-8" d="M381.31,417.41a17.55,17.55,0,0,0,4.84,2c-.14.74-.27,1.48-.44,2.19a3,3,0,0,1-.14.55l1,.56c.07-.29.13-.59.2-.88.25-1.17.45-2.36.61-3.56a18.15,18.15,0,0,0,5.28,1,5.69,5.69,0,0,0,4.22-2,2.46,2.46,0,0,0-.81-3.51l-.24-.13c-2-.91-5.57,1-6.95,2.39-.09.09-.95,1.19-1.42,1.81.1-.73.19-1.45.26-2.19.21-2.12.34-4.28.48-6.43,0-.65.1-1.31.15-2,.29.1,3.76,1.2,5.45,1,1.49-.15,3.36-.73,4.22-2a2.45,2.45,0,0,0-.8-3.5l-.25-.13c-2-.91-5.57,1-6.95,2.39-.1.11-1.36,1.7-1.65,2.11.1-1.44.23-2.88.41-4.3a43.87,43.87,0,0,1,1.06-5.67c.13,0,3.76,1.21,5.48,1,1.5-.15,3.36-.73,4.23-2a2.46,2.46,0,0,0-.81-3.5l-.25-.13c-2-.92-5.57,1-6.94,2.39-.12.11-1.46,1.82-1.68,2.14a1.32,1.32,0,0,1,.08-.33,31.9,31.9,0,0,1,2.17-5.4,29.1,29.1,0,0,1,1.51-2.73c.65.28,3.64,1.54,5.21,1.55s3.42-.37,4.39-1.57a2.44,2.44,0,0,0-.37-3.56,1.88,1.88,0,0,0-.23-.16c-1.91-1.12-5.64.42-7.17,1.66-.09.07-.86.84-1.41,1.41.25-.39.49-.79.73-1.16.9-1.37,1.81-2.57,2.62-3.64.47-.6.9-1.13,1.31-1.63a19.1,19.1,0,0,0,5.36-.89c1.33-.65,2.85-1.83,3.17-3.31a2.55,2.55,0,0,0-2.12-3l-.22,0c-2.25-.15-4.81,2.84-5.57,4.6-.06.16-.8,2.65-.76,2.65h.06c-.42.47-.85,1-1.3,1.54-.85,1-1.79,2.24-2.72,3.6a46.41,46.41,0,0,0-2.78,4.52,32,32,0,0,0-2.32,5.43v.07c0-.63-.1-2.37-.12-2.51-.32-1.88-2.11-5.33-4.35-5.65a2.66,2.66,0,0,0-3,2.22,2.11,2.11,0,0,0,0,.25c-.07,1.51,1.13,3,2.28,3.89a17.58,17.58,0,0,0,5.14,2,43.47,43.47,0,0,0-1.28,5.84c-.18,1.15-.32,2.31-.43,3.48a8.41,8.41,0,0,0-.08-1.09c-.33-1.88-2.11-5.34-4.35-5.65a2.64,2.64,0,0,0-3,2.19,2.46,2.46,0,0,0,0,.28c-.07,1.5,1.13,3,2.28,3.88a18.3,18.3,0,0,0,5,2c0,.44-.1.89-.13,1.34-.2,2.15-.38,4.29-.63,6.39-.09.74-.2,1.47-.32,2.19v-.94c-.33-1.88-2.11-5.33-4.35-5.65a2.64,2.64,0,0,0-3,2.19,2.46,2.46,0,0,0,0,.28C379,415,380.16,416.5,381.31,417.41Z"></path><path class="cls-8" d="M437.77,400.06c-1.69-1.31-5.36-.15-6.93.93-.14.09-2.1,1.79-2.06,1.81h0c-.58.17-1.2.37-1.88.6-1.24.44-2.64.94-4.12,1.59a42.56,42.56,0,0,0-4.69,2.32,33.28,33.28,0,0,0-4.83,3.31l-.05.05c.33-.53,1.23-2,1.28-2.15.78-1.74,1.27-5.56-.32-7a2.52,2.52,0,0,0-3.55.28,1.84,1.84,0,0,0-.17.22c-.89,1.21-.75,3.06-.35,4.43.47,1.54,2.75,4.16,2.94,4.37a41.93,41.93,0,0,0-4.23,4.2c-.78.87-1.53,1.76-2.27,2.67.28-.46.52-.88.55-.94.78-1.74,1.27-5.56-.32-7a2.52,2.52,0,0,0-3.55.28,1.84,1.84,0,0,0-.17.22c-.89,1.21-.75,3.07-.34,4.43a16.59,16.59,0,0,0,2.83,4.25l-.84,1c-1.34,1.7-2.67,3.39-4,5-.47.57-1,1.12-1.45,1.66l.47-.82c.78-1.73,1.27-5.55-.32-7a2.52,2.52,0,0,0-3.55.28,1.84,1.84,0,0,0-.17.22c-.89,1.21-.75,3.06-.34,4.43a16,16,0,0,0,2.72,4.31l-1,1.08.88.53c.61-.63,1.2-1.29,1.79-2a16.52,16.52,0,0,0,3.62,3.56,5.29,5.29,0,0,0,4.42.5,2.52,2.52,0,0,0,1.31-3.31,1.92,1.92,0,0,0-.12-.25c-1.11-1.83-5-2.07-6.8-1.63-.12,0-1.41.49-2.12.76.47-.56.95-1.11,1.41-1.69,1.33-1.66,2.63-3.39,3.93-5.11l1.2-1.56c.18.23,2.32,3,3.74,3.7a5.26,5.26,0,0,0,4.41.5,2.52,2.52,0,0,0,1.31-3.31,1.92,1.92,0,0,0-.12-.25c-1.1-1.83-4.94-2.08-6.8-1.64-.14,0-2,.71-2.46.9.88-1.15,1.77-2.28,2.7-3.37a41.38,41.38,0,0,1,4-4.16c.08.11,2.29,3,3.75,3.73,1.26.66,3.05,1.15,4.41.5a2.52,2.52,0,0,0,1.32-3.31,1.42,1.42,0,0,0-.12-.25c-1.11-1.83-5-2.07-6.8-1.64-.15,0-2.15.76-2.51.92l.25-.24a32.37,32.37,0,0,1,4.69-3.37c.91-.56,1.81-1,2.7-1.48.36.57,2,3.18,3.26,4a5.33,5.33,0,0,0,4.33,1,2.53,2.53,0,0,0,1.67-3.16l-.09-.25c-.9-1.94-4.69-2.6-6.58-2.37-.11,0-1.14.26-1.89.45.41-.2.82-.41,1.21-.59,1.47-.68,2.85-1.21,4.08-1.67l1.94-.67a16.89,16.89,0,0,0,4.71,2.05,5.27,5.27,0,0,0,4.3-1.13,2.51,2.51,0,0,0,0-3.55A1.54,1.54,0,0,0,437.77,400.06Z"></path><path class="cls-8" d="M386.78,437.51l1.15.71.71-.52.27-.2Z"></path><path class="cls-8" d="M55.47,371a2.53,2.53,0,0,0-.74,3.5,1.37,1.37,0,0,0,.15.21,4.3,4.3,0,0,0,2.8,1.48l2.15-4.91C58.32,370.61,56.58,370.29,55.47,371Z"></path><path class="cls-8" d="M65.42,364.56a3.64,3.64,0,0,0-1.36,2.05l3.77-2.11A2.41,2.41,0,0,0,65.42,364.56Z"></path><path class="cls-8" d="M66.06,328.82c1.28,1.08,4.89,2.06,4.89,2.06s-.07-2.58-.1-2.74c-.3-1.88-2-5.34-4.09-5.67a2.51,2.51,0,0,0-2.82,2.16c0,.1,0,.2,0,.3C63.88,326.43,65.06,327.9,66.06,328.82Z"></path><path class="cls-8" d="M39.73,340.16s-1.49-2.11-1.6-2.23c-1.28-1.4-4.6-3.36-6.54-2.47a2.52,2.52,0,0,0-1.14,3.38c0,.08.09.16.14.24.76,1.3,2.51,1.9,3.93,2.07C36.17,341.34,39.73,340.17,39.73,340.16Z"></path><path class="cls-8" d="M38,332.28h0c.1.6.21,1.23.34,1.93.26,1.28.56,2.72,1,4.26a43.08,43.08,0,0,0,1.63,5,34.05,34.05,0,0,0,2.59,5.2v.06c-.47-.4-1.83-1.49-2-1.56-1.6-1-5.29-2-7-.66a2.5,2.5,0,0,0-.2,3.53l.2.2c1.07,1.05,2.91,1.17,4.31,1,1.57-.24,4.46-2.14,4.69-2.29a46.93,46.93,0,0,0,3.55,4.75c.75.87,1.52,1.74,2.31,2.59l-.85-.68c-1.6-1-5.29-2-6.95-.64a2.5,2.5,0,0,0-.18,3.54l.18.19a5.24,5.24,0,0,0,4.31.94,16.65,16.65,0,0,0,4.58-2.19c.3.32.6.64.91,1,1.48,1.55,3,3.09,4.37,4.65.49.54,1,1.1,1.43,1.65l-.74-.57c-1.6-1-5.29-2-7-.66a2.51,2.51,0,0,0-.18,3.55c.06.06.12.13.18.18,1.08,1.05,2.92,1.17,4.31,1a16.07,16.07,0,0,0,4.46-2.13c.46.58.93,1.16,1.36,1.76.27.41.57.77.83,1.2v.06l.38-.85.22-.13-.65-.88c-.71-.94-1.48-1.86-2.27-2.76a16.68,16.68,0,0,0,4-3.07,5.25,5.25,0,0,0,1.1-4.28,2.5,2.5,0,0,0-3.08-1.74l-.26.08c-2,.84-2.71,4.58-2.54,6.46,0,.11.29,1.45.46,2.19-.49-.55-1-1.09-1.46-1.63-1.46-1.54-3-3.05-4.48-4.56l-1.37-1.39c.24-.15,3.22-1.87,4.14-3.17A5.2,5.2,0,0,0,56,349a2.51,2.51,0,0,0-3.09-1.74l-.24.08c-2,.83-2.72,4.57-2.54,6.46,0,.14.41,2.06.54,2.55-1-1-2-2.07-3-3.12a43.77,43.77,0,0,1-3.54-4.5c.12-.07,3.24-1.86,4.18-3.18a5.22,5.22,0,0,0,1.1-4.27,2.5,2.5,0,0,0-3.05-1.8l-.3.1c-2,.83-2.72,4.57-2.54,6.46,0,.15.45,2.21.55,2.58l-.2-.27a32.35,32.35,0,0,1-2.67-5.08c-.42-1-.77-1.93-1.08-2.86a16.53,16.53,0,0,0,4.39-2.65,5.2,5.2,0,0,0,1.55-4.12,2.5,2.5,0,0,0-2.91-2l-.23.05c-2,.61-3.19,4.24-3.23,6.14,0,.1.1,1.15.18,1.92-.13-.43-.28-.87-.41-1.28-.47-1.52-.79-3-1.07-4.23-.16-.73-.29-1.38-.4-2a16.19,16.19,0,0,0,2.66-4.35,5.23,5.23,0,0,0-.5-4.38,2.51,2.51,0,0,0-3.5-.53l-.22.18c-1.51,1.48-.89,5.24,0,6.95C36.53,330.13,37.93,332.31,38,332.28Z"></path><path class="cls-8" d="M64.25,339.59c1.46.67,4.94.69,5.22.7a44.52,44.52,0,0,0,.34,6c.14,1.15.32,2.31.51,3.46a8.87,8.87,0,0,0-.35-1c-.78-1.74-3.32-4.63-5.44-4.39a2.53,2.53,0,0,0-2.15,2.86,2.38,2.38,0,0,0,0,.26c.32,1.47,1.8,2.59,3.1,3.19a16.68,16.68,0,0,0,5.06.7c.08.44.15.88.23,1.32.38,2.13.77,4.24,1.09,6.33.11.74.19,1.47.28,2.2l-.3-.9c-.79-1.74-3.33-4.63-5.45-4.39a2.51,2.51,0,0,0-2.13,2.85,1.57,1.57,0,0,0,0,.23c.32,1.47,1.8,2.59,3.09,3.19a11.06,11.06,0,0,0,3.42.63l2.33-1.31h0l1.84-1,5-5.51a2,2,0,0,0-.35-.1c-2.1-.38-4.83,2.33-5.73,4,0,.11-.56,1.39-.83,2.09-.1-.72-.2-1.44-.33-2.17-.36-2.1-.8-4.21-1.22-6.33-.14-.64-.26-1.29-.38-1.94.29,0,3.75.23,5.24-.34,1.33-.51,2.89-1.53,3.3-3a2.52,2.52,0,0,0-1.67-3.15l-.25-.06c-2.1-.38-4.82,2.33-5.72,4-.07.13-.8,2-1,2.45-.27-1.43-.53-2.85-.73-4.26a44.28,44.28,0,0,1-.47-5.75c.14,0,3.75.24,5.28-.34a5.26,5.26,0,0,0,3.3-3,2.53,2.53,0,0,0-1.61-3.18l-.27-.07c-2.1-.39-4.83,2.33-5.73,4-.07.13-.39,2.48-.39,2.48V340a28,28,0,0,1,0-5.75c.19-1.05.43-2,.68-3,.67.11,3.73.59,5.16.21a5.31,5.31,0,0,0,3.61-2.59,2.54,2.54,0,0,0-1.27-3.35l-.24-.09c-2-.61-5,1.79-6.13,3.36-.06.08-.56,1-.92,1.7.12-.43.24-.88.36-1.29.47-1.54,1-2.93,1.45-4.16.28-.69.54-1.31.78-1.89.72-.24,3.58-1.2,4.66-2.18a5.24,5.24,0,0,0,2-4A2.53,2.53,0,0,0,78,314.58l-.27,0c-2.1.4-4.18,5.81-4.18,5.81v3.37h0c-.23.52-.47,1.07-.73,1.68-.46,1.13-.93,2.41-1.43,3.83A44.94,44.94,0,0,0,70.07,334a30.65,30.65,0,0,0-.57,5.41v.69s-.75-2.27-.8-2.39c-.79-1.74-3.33-4.63-5.45-4.39a2.51,2.51,0,0,0-2.14,2.85,2.56,2.56,0,0,0,0,.27A5.26,5.26,0,0,0,64.25,339.59Z"></path><path class="cls-8" d="M209.28,361.77a2.51,2.51,0,0,0-2.14,2.85,2.56,2.56,0,0,0,.05.27,5.25,5.25,0,0,0,3.09,3.19,10.26,10.26,0,0,0,3.06.6l.89-1.06.5-1.45h0C213.94,364.42,211.4,361.53,209.28,361.77Z"></path><path class="cls-8" d="M198.31,376.88a2.53,2.53,0,0,0-.74,3.5,1.37,1.37,0,0,0,.15.21c.9,1.21,2.72,1.6,4.14,1.6a9.37,9.37,0,0,0,2.71-.62l.58-2.92-.06-.06C203.65,377.34,200.13,375.78,198.31,376.88Z"></path><path class="cls-8" d="M208.26,370.48c-1.63,1-1.95,4.22-1.66,6.2l4.79-5.69A2.47,2.47,0,0,0,208.26,370.48Z"></path><path class="cls-8" d="M193.49,363.33c.31.32.61.65.92,1,1.49,1.56,3,3.11,4.4,4.68.5.55,1,1.11,1.45,1.67l-.75-.58c-1.61-1-5.33-2-7-.66a2.53,2.53,0,0,0-.19,3.57l.19.19c1.08,1.05,2.94,1.17,4.34,1a16.27,16.27,0,0,0,4.49-2.14c.47.59.94,1.17,1.37,1.77.28.41.58.78.84,1.21l.79,1.24c.36.62.73,1.24,1.08,1.85l.77-.91c-.3-.5-.61-1-.94-1.53l-.82-1.23c-.26-.41-.59-.82-.89-1.23-.72-1-1.49-1.88-2.29-2.79a16.67,16.67,0,0,0,4-3.09,5.31,5.31,0,0,0,1.11-4.31,2.52,2.52,0,0,0-3.08-1.8l-.22.07c-2,.84-2.74,4.61-2.56,6.5,0,.12.29,1.47.46,2.21l-1.47-1.63c-1.47-1.55-3-3.08-4.52-4.61l-1.38-1.4c.25-.15,3.25-1.88,4.18-3.19a5.26,5.26,0,0,0,1.11-4.3,2.52,2.52,0,0,0-3.11-1.76l-.25.08c-2,.84-2.74,4.61-2.56,6.51,0,.14.41,2.08.54,2.57-1-1-2-2.08-3-3.14a42.08,42.08,0,0,1-3.56-4.54c.12-.07,3.26-1.87,4.21-3.2a5.29,5.29,0,0,0,1.11-4.3,2.52,2.52,0,0,0-3.11-1.76l-.25.08c-2,.84-2.74,4.61-2.56,6.51,0,.15.45,2.23.55,2.6l-.2-.27a33.31,33.31,0,0,1-2.69-5.12c-.42-1-.77-1.94-1.09-2.88a17.06,17.06,0,0,0,4.43-2.66c.95-1.07,1.86-2.68,1.57-4.16A2.53,2.53,0,0,0,186,337.4l-.23.05c-2,.62-3.22,4.29-3.26,6.19,0,.1.1,1.16.18,1.93-.13-.43-.28-.87-.41-1.28-.47-1.54-.8-3-1.08-4.27-.16-.73-.29-1.39-.4-2a16.9,16.9,0,0,0,2.68-4.39,5.27,5.27,0,0,0-.51-4.41,2.52,2.52,0,0,0-3.53-.53l-.21.18c-1.53,1.49-.9,5.29,0,7,.08.15,1.49,2.32,1.51,2.29h0c.1.6.21,1.24.34,1.94.26,1.29.56,2.74,1,4.3a41.74,41.74,0,0,0,1.64,5,34.22,34.22,0,0,0,2.61,5.25v.05c-.47-.4-1.84-1.5-1.95-1.57-1.61-1-5.33-2-7-.65a2.52,2.52,0,0,0-.19,3.56l.19.19c1.08,1.06,2.93,1.17,4.34,1,1.59-.24,4.5-2.15,4.73-2.3a47.6,47.6,0,0,0,3.58,4.78c.75.88,1.53,1.75,2.33,2.61l-.86-.68c-1.61-1-5.33-2-7-.65a2.52,2.52,0,0,0-.2,3.56l.2.2c1.07,1.05,2.93,1.17,4.33.95A16.92,16.92,0,0,0,193.49,363.33Z"></path><path class="cls-8" d="M208.94,334.74c1.28,1.08,4.89,2.06,4.89,2.06s-.07-2.58-.1-2.74c-.3-1.88-2-5.34-4.09-5.67a2.52,2.52,0,0,0-2.82,2.18,2.64,2.64,0,0,0,0,.28C206.72,332.35,207.85,333.82,208.94,334.74Z"></path><path class="cls-8" d="M182.57,346.09s-1.49-2.12-1.6-2.24c-1.28-1.4-4.6-3.36-6.54-2.47a2.52,2.52,0,0,0-1.14,3.38c0,.08.09.16.14.24.76,1.3,2.51,1.9,3.93,2.07C179.06,347.26,182.57,346.09,182.57,346.09Z"></path><path class="cls-8" d="M207.06,345.51c1.46.67,4.94.7,5.22.7a43.79,43.79,0,0,0,.34,6c.14,1.15.32,2.31.51,3.47a8.08,8.08,0,0,0-.35-1c-.78-1.74-3.32-4.63-5.44-4.39a2.53,2.53,0,0,0-2.15,2.86,2.38,2.38,0,0,0,.05.26c.32,1.47,1.8,2.59,3.1,3.19a16.68,16.68,0,0,0,5.06.7c.08.44.15.88.23,1.32.38,2.13.77,4.25,1.09,6.33a7.37,7.37,0,0,0,.11.93l.63-1.8c-.34-1.86-.72-3.73-1.09-5.6-.13-.64-.26-1.29-.38-1.93a25.41,25.41,0,0,0,4.09-.09l1.76-5.09,1.39-1.21a2.32,2.32,0,0,0-.58-.19c-2.1-.38-4.82,2.33-5.72,4-.07.13-.8,2-1,2.45-.27-1.43-.53-2.85-.73-4.26a44.28,44.28,0,0,1-.47-5.75c.14,0,3.75.24,5.28-.34a5.26,5.26,0,0,0,3.3-3,2.53,2.53,0,0,0-1.61-3.18l-.27-.07c-2.1-.39-4.83,2.33-5.73,4-.07.13-.85,2.11-2.2,2.48v-.34a14.82,14.82,0,0,0,1.78-5.75c.19-1,.43-2,.68-3,.67.11,3.73.59,5.16.21a5.31,5.31,0,0,0,3.61-2.59,2.54,2.54,0,0,0-1.27-3.35l-.24-.09c-2-.61-5,1.79-6.13,3.36-.06.08-.56,1-.92,1.7.12-.43.24-.88.36-1.29.47-1.54,1-2.93,1.45-4.16.28-.69.54-1.31.78-1.89.72-.24,3.58-1.2,4.66-2.18a5.24,5.24,0,0,0,2-4,2.53,2.53,0,0,0-2.66-2.39l-.27,0c-2.1.4-3.66,3.92-3.89,5.81,0,.17,0,2.76,0,2.75h0c-.25.56-.51,1.15-.78,1.81-.5,1.22-1,2.6-1.55,4.14a46.49,46.49,0,0,0-1.37,5.05,17.28,17.28,0,0,0-.4,5.82V346a11.32,11.32,0,0,1-1.07-2.39c-.79-1.74-3.33-4.63-5.45-4.39a2.51,2.51,0,0,0-2.14,2.85,2.56,2.56,0,0,0,0,.27A5.88,5.88,0,0,0,207.06,345.51Z"></path></g><g id="freepik--character-3--inject-3"><polyline class="cls-5" points="358.7 258.17 354.71 253.22 358.3 250.39 360.71 253.4 359.89 255.31 360.57 256.83 359.16 257.84"></polyline><path class="cls-6" d="M391.06,266.76s-2.73-2.44-3.75-2.28-14.4,2.4-14.4,2.4L360.6,256.83l-1.88,1.34L370.5,273l12.8-.8-2.75,14L368.9,295l19,11.35,3.83-12.08,15.13-14.9L401,272Z"></path><polygon class="cls-5" points="394.96 263.53 392.81 268.05 392.02 267.33 390.51 278.32 400.99 271.97 399.94 270.31 400.18 266.88 394.96 263.53"></polygon><polygon class="cls-5" points="390.51 278.32 396.64 274.6 391.52 271 390.51 278.32"></polygon><path class="cls-7" d="M407,252.76s4.63-5.42,9.34-2,3.41,6.76,6.77,4.93,9.67-6.48,13.47-.56.87,12.12-1.52,13.54-1.76-1.29-1.71-2.6-3.87-3-4.74-.3-5.44,6.86-11.24,6.47-6.92-7.52-6.79-11.71a7.25,7.25,0,0,0-3.59-6.21Z"></path><path class="cls-5" d="M396,251.64s-2.9,6.46-2.3,10.27.28,6.74,2.22,7.48,8.37-3.15,9.79-5.72,3.45-6.28,2.89-9.84S401.18,245.09,396,251.64Z"></path><path class="cls-8" d="M397.06,258.42c-.15.5-.47.84-.72.76s-.33-.54-.18-1,.47-.84.72-.76S397.17,257.92,397.06,258.42Z"></path><path class="cls-8" d="M401.68,260.34c-.15.5-.48.85-.73.77s-.33-.54-.18-1,.48-.84.73-.77S401.83,259.84,401.68,260.34Z"></path><path class="cls-3" d="M398.23,259.25s.3.22-.12,1-1.43.5-1.32,1.17,1.38,1,1.38,1"></path><path class="cls-3" d="M395.9,263.58s1.61,1.52,3.05,1.15"></path><line class="cls-3" x1="403.2" y1="258.74" x2="400.21" y2="257.98"></line><line class="cls-3" x1="397.85" y1="256.85" x2="396.42" y2="255.57"></line><path class="cls-7" d="M396,251.64s-.43,1-.93,2.37c1.69-.88,4.6-1.87,7.26-.23s4,5.41,4.54,7.72c1.13-2.29,2.14-5,1.73-7.67C408,250.27,401.18,245.09,396,251.64Z"></path><path class="cls-5" d="M406.14,261.4s2.08-1.91,2-.17-2.47,2.77-3,2.85-.49-.59-.49-.59"></path><path class="cls-6" d="M406.85,279.4l-3.2,22.81a2.1,2.1,0,0,1-2,1.79H401a2.08,2.08,0,0,1-2.15-1.89l-1.25-13.72Z"></path><path class="cls-6" d="M401.06,299.06,390.79,290l-2.3,1.93,9.86,11.41a2.11,2.11,0,0,0,1.71.66h.81a2.09,2.09,0,0,0,2-2.18,2,2,0,0,0-.06-.42h0"></path><polygon class="cls-5" points="390.83 290 388.42 286.15 383 285.55 383.03 288.78 385.63 290.95 387.28 291.18 388.53 291.93 390.83 290"></polygon><path class="cls-5" d="M361.77,302s-11.32,14.73-10.7,17.17,17.16,28.27,17.16,28.27l2.3-1.52-9.09-28.38,18.27-7.27Z"></path><polygon class="cls-13" points="370.89 307.47 372.23 313.36 378.28 311.04 370.89 307.47"></polygon><path class="cls-5" d="M368.23,347.4l-3,5s-2.39,3.58-1.69,3.8c1.53.49,5.49-2.11,6.62-2.91s2.34-1.33,3.09-1.86,2.25-.84.2-2.74c-.69-.63-2.88-2.81-2.88-2.81Z"></path><path class="cls-7" d="M386.92,297.31a138.48,138.48,0,0,0-15.61-5.17c-9.17-2.49-15.95-4.42-15.82-2.13s16.81,39.18,16.81,39.18l2.86-.91-4.36-20.34s7,4.9,12.17,2.47,7.14-9,6.78-11.24"></path><path class="cls-5" d="M369.36,291.61c-8.16-2.21-14-3.73-13.87-1.6.13,2.29,16.81,39.18,16.81,39.18l2.86-.91-4.36-20.34C372.29,304.31,370.71,296.68,369.36,291.61Z"></path><line class="cls-3" x1="370.8" y1="307.94" x2="363.61" y2="297.51"></line><path class="cls-5" d="M372.3,329.19l-2.68,5.05s-5.41,5.24-4.21,5.51,11.37-4.1,12.13-5.14-2.38-6.33-2.38-6.33Z"></path><line class="cls-12" x1="359.86" y1="255.73" x2="385.08" y2="285.76"></line><line class="cls-12" x1="282.26" y1="162.73" x2="356.27" y2="251.29"></line><line class="cls-12" x1="387" y1="291.5" x2="387" y2="437.5"></line></g><g id="freepik--character-1--inject-3"><path class="cls-12" d="M146.74,250.6s5.32,31.13-.46,41S126,294.37,126,294.37V436.5"></path><path class="cls-5" d="M114.45,262.25s4.71-.54,5.07.55a6.2,6.2,0,0,1,0,2.71s2.71,2.9,2.71,4.89-2.89,2.9-2.89,2.9l-.54,4.7-7.24.36-.91-5.61S107.93,262.07,114.45,262.25Z"></path><path class="cls-7" d="M115.9,270l-2-2.9a7.35,7.35,0,0,0,1.08-3.62c0-2-.18-5.61-4.34-5.61s-6.88,3.26-7.78,10.32,3.25,10.5,9.23,9.23S115.9,270,115.9,270Z"></path><path class="cls-5" d="M115.72,268.77s-3.08-.36-2.9,2a2.52,2.52,0,0,0,4.53,1.27"></path><path class="cls-7" d="M111.43,280.13,104.76,282s-.52,1.3-1.3,3c-1,2.31-3.94,7-3.94,7l-13.35,3.81-4.29,13.83-.95,5.72,7.62-3.82L89,298.21l12-1.85,5.15-13Z"></path><path class="cls-6" d="M122.06,278.18s-5.25-2.35-9.23-1.81-3.62,2.54-3.62,2.54l.18,2.71S116.06,279.63,122.06,278.18Z"></path><path class="cls-6" d="M104.13,291.4l3.75,17.34a1.32,1.32,0,0,0,1.49,1.13,1.23,1.23,0,0,0,.41-.13l8.47-4.23Z"></path><line class="cls-3" x1="113.55" y1="300.63" x2="111.56" y2="304.61"></line><polygon class="cls-7" points="131.1 318.19 142.03 336.27 140.58 360.72 145.83 360.54 151.08 331.38 143.41 310.95 131.1 318.19"></polygon><path class="cls-6" d="M109.38,281.62s-5.25,9.05-5.25,9.78,20.46,20.45,20.46,20.45l15.57-10.32-9.78-17,14.08-13.82,1.08-18.65-2.53-.18-4.53,13.58-15,11.82Z"></path><polygon class="cls-5" points="142.93 251.88 143.11 247.72 147.63 244.28 148 245.18 148 247.9 148.18 250.07 145.46 252.06 142.93 251.88"></polygon><path class="cls-7" d="M124.59,311.85s3.44,5.79,6,7.6,10.47-3.8,12.47-5.44,9.6-11.4,9.6-11.4l7.06,30.08,4.35-1.81s-2.55-40-3.81-41.12-20.82,11.58-20.82,11.58Z"></path><path class="cls-5" d="M164.06,331h6.15c1.09,0,3.8-1.63,4-.36s-5.25,4.7-7.43,5.79a27,27,0,0,1-6.51,1.63l-.55-5.25Z"></path><path class="cls-5" d="M145.83,360.54l3.08,5.61s3.8,1.63,3.8,2.36-6.15.36-6.7.36-6.69-6-6.69-6l1.26-2.18Z"></path><line class="cls-12" x1="147.71" y1="244.28" x2="206.8" y2="163.26"></line></g><g id="freepik--Floor--inject-3"><line class="cls-3" y1="437" x2="474" y2="437"></line></g><path d="M239.17,44.23l-.88,3.82-1.9.1.87-3.78a.24.24,0,0,0-.24-.3h-.74l-.95,4.13-1.9.09.89-3.83a.32.32,0,0,0-.31-.39h-.75l-1,4.28-1.9.1,1-4.38.41-1.57h3.26a1.27,1.27,0,0,1,1.18.79l.19-.79h1.38A1.41,1.41,0,0,1,239.17,44.23Z"></path><path d="M189.45,24.87l-1.14,4.94-2.45.12L187,25.05a.33.33,0,0,0-.32-.39h-.95L184.49,30l-2.45.12,1.14-4.95a.42.42,0,0,0-.4-.51h-1l-1.28,5.53-2.45.13,1.31-5.66.53-2h4.21a1.63,1.63,0,0,1,1.52,1l.25-1h1.77A1.82,1.82,0,0,1,189.45,24.87Z"></path><g id="freepik--Arrow--inject-5"><path class="cls-14" d="M345.46,384.87c-5.4,22.83-27.57,40.79-47.62,50.51H257.47C272.11,424.49,288.82,414.79,300,400c4.14-5.47,9.42-14.49,8.39-22.05-1.69-12.45-13.4-12.9-22.86-17.47q-12.27-5.94-24.2-12.54A484.89,484.89,0,0,1,219,321.53a493.24,493.24,0,0,1-120.2-120C71.55,162.94,48.34,120.06,34.12,74.91L45.9,71.42A488.43,488.43,0,0,0,291.34,326.36C311.05,335.51,342,341.63,346.1,367A45.15,45.15,0,0,1,345.46,384.87Z"></path><path class="cls-14" d="M43.8,66.36c.69,1.7,1.39,3.38,2.1,5.06L34.12,74.91C32.91,71.07,32.36,69,32.36,69Z"></path><polygon class="cls-14" points="57.9 67.86 45.9 71.42 34.12 74.91 21.93 78.52 29.82 41.94 57.9 67.86"></polygon></g></svg>