<svg xmlns="http://www.w3.org/2000/svg" id="Layer_1" data-name="Layer 1" viewBox="0 0 250 250"><path d="M110.44,206.24V192.59H48.06A9.8,9.8,0,0,1,38,182.73q0-23.82,0-47.64V80.32a9.72,9.72,0,0,1,7.67-9.53A10.78,10.78,0,0,1,48,70.54H202a9.8,9.8,0,0,1,10,10.06q0,43,0,85.94,0,8,0,16A9.78,9.78,0,0,1,202,192.59H139.57v13.64h.75c4,0,8-.07,11.92.06A19.59,19.59,0,0,1,171,225.52a2.05,2.05,0,0,1-2.34,2.37H81.32A2,2,0,0,1,79,225.52a19.6,19.6,0,0,1,18.73-19.23c4-.13,8,0,12,0C110,206.23,110.18,206.24,110.44,206.24ZM73.83,119.51l.36-.34,4.7-4.7a2,2,0,0,1,3.26,0q3.57,3.57,7.15,7.17a2,2,0,0,1,0,3.1q-2.34,2.35-4.7,4.69a3.29,3.29,0,0,1-.53.36c.14.19.16.26.2.31A35.49,35.49,0,0,1,89,141.45c.09.38.29.41.59.4l6.44,0c1.91,0,2.58.66,2.58,2.55q0,4.94,0,9.87a2,2,0,0,1-2.18,2.2c-2.25,0-4.51,0-6.76,0-.44,0-.59.12-.69.55a34,34,0,0,1-2.68,7.64c-.13.26-.26.52-.4.83H208.08V80.66a5.84,5.84,0,0,0-6.17-6.15H48a5.83,5.83,0,0,0-6.07,6v35c0,.19,0,.37,0,.59.92-.3,1.77-.59,2.62-.84s1.76-.47,2.67-.71v-7.3a2,2,0,0,1,2.17-2.16H59.64a2,2,0,0,1,2.22,2.22c0,2.27,0,4.54,0,6.81,0,.37.12.51.48.59a33.11,33.11,0,0,1,7.92,2.83C71.46,118.16,72.62,118.84,73.83,119.51Zm134.23,50H41.92v13a5.85,5.85,0,0,0,6.15,6.12H201.25a5.41,5.41,0,0,0,.9,0,11,11,0,0,0,2.59-.6,5.63,5.63,0,0,0,3.34-5.47c0-4.19,0-8.37,0-12.56C208.08,169.86,208.07,169.72,208.06,169.52Zm-41.14,54.36c0-.23,0-.41-.07-.58a15.72,15.72,0,0,0-15.64-13.09H99c-.55,0-1.09,0-1.64.07a15.7,15.7,0,0,0-14.17,13.08c0,.16,0,.33,0,.52Zm-125-73.67c0,4.89,0,9.78,0,14.67,0,.53.14.66.67.66q10.34,0,20.67,0a2.41,2.41,0,0,0,1.33-.39,18.89,18.89,0,1,0-22.25-30.43,1,1,0,0,0-.42.89Q41.93,142.91,41.92,150.21ZM42,130a22.73,22.73,0,0,1,15.52-3.54,22.86,22.86,0,0,1,19.89,23.34,22.79,22.79,0,0,1-6.85,15.7h.65c3.18,0,6.37,0,9.55,0a.84.84,0,0,0,.82-.48,31.28,31.28,0,0,0,3.89-10.64,2,2,0,0,1,2.28-1.91h6.87v-6.68h-7A2,2,0,0,1,85.44,144a31.48,31.48,0,0,0-5.36-13,2,2,0,0,1,.23-2.89l4.59-4.59.25-.28-4.76-4.79a2.91,2.91,0,0,1-.32.45q-2.25,2.27-4.52,4.51a2,2,0,0,1-2.8.24,31.42,31.42,0,0,0-13-5.41A2,2,0,0,1,57.89,116v-6.33c0-.19,0-.37,0-.58H51.22v.6q0,3,0,6.07c0,1.64-.51,2.24-2.13,2.52a32.83,32.83,0,0,0-6.66,2,.7.7,0,0,0-.51.78c0,2.81,0,5.63,0,8.44C41.92,129.62,41.94,129.78,42,130Zm93.57,76.17V192.63h-21V206.2Z"></path><path d="M175.38,113h13.81a2,2,0,0,1,2.32,2.32q0,15.53,0,31.07c0,2.66,0,5.31,0,8a2,2,0,0,1-2.33,2.32H117.49a2.31,2.31,0,0,1-1.75-.57,1.93,1.93,0,0,1-.59-1.47V108.21c0-1.62.73-2.35,2.35-2.35h3.6V85.75c0-1.66.73-2.39,2.37-2.39h38.35a2.23,2.23,0,0,1,1.65.7q5.58,5.6,11.19,11.19a2.32,2.32,0,0,1,.7,1.75q0,7.76,0,15.51C175.35,112.64,175.37,112.77,175.38,113Zm12.14,4H149.73a2.7,2.7,0,0,1-2-.78c-2.12-2-4.27-4-6.39-6a1.26,1.26,0,0,0-.94-.37H119.7l-.56,0v35.43h68.38Zm-62.4-11.09h.66c5.18,0,10.37,0,15.55,0a2.76,2.76,0,0,1,2,.79c2.12,2,4.27,4,6.39,6a1.3,1.3,0,0,0,1,.39h20.63V98.77h-9.09A2.05,2.05,0,0,1,160,96.43V87.36H125.12Zm-6,46.81h68.39v-3.32H119.12Zm49.18-57.9L164,90.46v4.31Z"></path><path d="M157.94,121.7l-.54,2q-2.39,8.91-4.77,17.82a2,2,0,0,1-1.9,1.61,1.91,1.91,0,0,1-1.92-1.36,2.68,2.68,0,0,1,0-1.29q2.58-9.77,5.21-19.5a2,2,0,0,1,2.28-1.55A2,2,0,0,1,157.94,121.7Z"></path><path d="M139.88,131.27l4.7,3.63c.18.14.37.27.54.42a2,2,0,0,1-2.45,3.12c-1.72-1.3-3.42-2.63-5.14-3.95-.68-.53-1.37-1.05-2-1.58a2,2,0,0,1,0-3.28q3.54-2.76,7.1-5.48a2,2,0,1,1,2.43,3.14c-1.52,1.19-3.06,2.36-4.59,3.54Z"></path><path d="M166.75,131.26c-.26-.21-.47-.38-.69-.54l-4.34-3.36a2,2,0,1,1,2.4-3.16l7,5.38a2,2,0,0,1,0,3.38l-7,5.38a2,2,0,1,1-2.44-3.14c1.54-1.2,3.09-2.38,4.64-3.58Z"></path><path d="M142.53,95.39h-11a2,2,0,1,1,0-4h21.88a2,2,0,1,1,0,4Z"></path><path d="M142.53,102.15H131.61a2,2,0,0,1-2.11-2.05,1.94,1.94,0,0,1,1.63-1.88,5.07,5.07,0,0,1,.68,0h21.46a2.07,2.07,0,0,1,2.22,1.42,2,2,0,0,1-1.94,2.56h-11Z"></path></svg>