<svg xmlns="http://www.w3.org/2000/svg" id="Layer_1" data-name="Layer 1" viewBox="0 0 250 250"><path d="M88.94,161.21A53.32,53.32,0,0,1,91.49,54.64a52.88,52.88,0,0,1,22.22,4.84l-1.7,3.7a48.73,48.73,0,0,0-20.52-4.47A49.24,49.24,0,1,0,140.73,108c0-.69,0-1.39,0-2.08l4.06-.18c0,.74.05,1.51.05,2.26A53.38,53.38,0,0,1,88.94,161.21Z"></path><line x1="195.67" y1="212.14" x2="127.75" y2="144.21" style="fill:none;stroke:#000;stroke-miterlimit:10;stroke-width:19px"></line><path d="M166.88,146.62H185.4a2.54,2.54,0,0,1,2.54,2.54V226a11.8,11.8,0,0,1-11.8,11.8h0a11.8,11.8,0,0,1-11.8-11.8V149.16a2.54,2.54,0,0,1,2.54-2.54Z" transform="translate(-84.31 180.84) rotate(-45)"></path><path d="M147.5,102a9.1,9.1,0,0,1-2.09-1.18c-1.3-1.33-2.6-1.78-4.19-.56a1.21,1.21,0,0,1-.56.24c-1.71.19-2,1.3-2.14,2.81-.17,2.7-1,3.4-3.75,3.4-1.19,0-2.38,0-3.57,0a2.59,2.59,0,0,1-2.82-2.61c0-2.06-.82-3-2.81-3.8s-3.12-.82-4.6.64c-1.29,1.27-2.76,1-4.07-.25l-2.67-2.66c-1.43-1.42-1.63-2.87-.27-4.31s1.73-2.6.51-4.18a1.84,1.84,0,0,1-.35-.84c-.18-1.61-1.2-2-2.65-2.06-2.38-.15-3.15-1.09-3.16-3.46,0-1.26,0-2.52,0-3.77,0-1.65,1-2.86,2.55-2.88,2,0,2.81-.83,3.55-2.68s.82-3.06-.61-4.51a2.58,2.58,0,0,1,.21-3.76c1-1,2-2.08,3.09-3.1a2.56,2.56,0,0,1,3.76-.19c1.41,1.41,2.71,1.57,4.29.45a2.46,2.46,0,0,1,1.13-.44c1.46-.16,1.75-1.11,1.85-2.37.2-2.54,1.1-3.29,3.67-3.28,1.19,0,2.38,0,3.57,0,1.65,0,2.89,1,2.88,2.55,0,2,.77,3,2.69,3.39a4.62,4.62,0,0,1,1.74.81c.77.54,1.28.34,1.95-.2,2.77-2.23,3.51-2.17,6,.36.66.69,1.33,1.36,2,2.05,1.16,1.24,1.4,2.65.24,3.82-1.5,1.54-1.52,2.85-.67,4.79.73,1.65,1.39,2.53,3.3,2.58,2.08.06,2.9,1.2,2.89,3.29,0,1.25,0,2.51,0,3.77,0,1.77-.92,3-2.65,3-2.09,0-3.15.82-3.91,2.86a3.08,3.08,0,0,0,.57,3.7c1.7,1.94,1.57,3.12-.26,4.92-.85.83-1.64,1.73-2.55,2.49A12.71,12.71,0,0,1,147.5,102ZM133.2,90.45a8.93,8.93,0,1,0-8.92-8.88A8.94,8.94,0,0,0,133.2,90.45Z"></path><path d="M61.48,123.05a13.66,13.66,0,0,0,6.14,1.54c2.55,0,3.9-1.06,3.9-2.67s-1.17-2.39-4.1-3.43c-4.09-1.45-6.77-3.68-6.77-7.26,0-4.18,3.51-7.36,9.28-7.36a14.54,14.54,0,0,1,6.26,1.24L75,109.55a11.84,11.84,0,0,0-5.12-1.16c-2.41,0-3.56,1.12-3.56,2.37,0,1.56,1.36,2.25,4.54,3.45,4.34,1.62,6.35,3.87,6.35,7.34,0,4.09-3.14,7.61-9.89,7.61a15.76,15.76,0,0,1-6.92-1.53Z"></path><path d="M95.51,118.4h-9v5.83H96.57v4.54H80.94V104.26H96.05v4.54H86.49v5.1h9Z"></path><path d="M122.8,116.27c0,8-4.86,12.9-12,12.9s-11.55-5.5-11.55-12.49c0-7.33,4.72-12.83,11.94-12.83C118.68,103.85,122.8,109.49,122.8,116.27Zm-17.72.31c0,4.8,2.27,8.19,6,8.19s5.89-3.55,5.89-8.31c0-4.42-2.09-8.2-5.91-8.2S105.08,111.81,105.08,116.58Z"></path></svg>